<svg width="10" height="6" viewBox="0 0 10 6" fill="none" xmlns="http://www.w3.org/2000/svg">
<path d="M9.10064 0.274794C9.01358 0.187677 8.91021 0.118569 8.79643 0.0714189C8.68265 0.0242685 8.56069 0 8.43753 0C8.31437 0 8.19241 0.0242685 8.07863 0.0714189C7.96485 0.118569 7.86148 0.187677 7.77442 0.274794L4.90823 3.14036C4.84962 3.19894 4.77016 3.23185 4.68729 3.23185C4.60443 3.23185 4.52496 3.19894 4.46636 3.14036L1.60079 0.274794C1.42501 0.0989261 1.18656 9.1384e-05 0.937903 3.27819e-05C0.689247 -2.58202e-05 0.450751 0.0986963 0.274883 0.274482C0.0990151 0.450267 0.000180702 0.688716 0.000122096 0.937372C6.34906e-05 1.18603 0.0987856 1.42452 0.274571 1.60039L3.14076 4.46658C3.34389 4.66973 3.58504 4.83088 3.85045 4.94082C4.11586 5.05077 4.40033 5.10735 4.68761 5.10735C4.97488 5.10735 5.25935 5.05077 5.52476 4.94082C5.79017 4.83088 6.03132 4.66973 6.23445 4.46658L9.10064 1.60039C9.27639 1.42459 9.37512 1.18618 9.37512 0.937593C9.37512 0.689007 9.27639 0.450598 9.10064 0.274794Z" fill="#2B2724"/>
</svg>
