<svg width="20" height="21" viewBox="0 0 20 21" fill="none" xmlns="http://www.w3.org/2000/svg">
<g clip-path="url(#clip0_4004_985)">
<path d="M14.1667 8.82579C10.9508 8.82579 8.33333 11.4425 8.33333 14.6591C8.33333 17.8575 10.9508 20.46 14.1667 20.46C17.3825 20.46 20 17.8433 20 14.6266C20 11.4283 17.3825 8.82579 14.1667 8.82579ZM14.1667 18.7933C11.8692 18.7933 10 16.9383 10 14.6591C10 12.3616 11.8692 10.4925 14.1667 10.4925C16.4642 10.4925 18.3333 12.3475 18.3333 14.6266C18.3333 16.9241 16.4642 18.7933 14.1667 18.7933ZM15.5892 14.8708C15.915 15.1966 15.915 15.7233 15.5892 16.0491C15.4267 16.2116 15.2133 16.2933 15 16.2933C14.7867 16.2933 14.5733 16.2116 14.4108 16.0491L13.5775 15.2158C13.4208 15.0591 13.3333 14.8475 13.3333 14.6266V12.96C13.3333 12.5 13.7058 12.1266 14.1667 12.1266C14.6275 12.1266 15 12.5 15 12.96V14.2816L15.5892 14.8708ZM20 6.29329V7.95996C20 8.41996 19.6275 8.79329 19.1667 8.79329C18.7058 8.79329 18.3333 8.41996 18.3333 7.95996V6.29329C18.3333 4.91496 17.2117 3.79329 15.8333 3.79329H4.16667C2.78833 3.79329 1.66667 4.91496 1.66667 6.29329V7.12663H9.16667C9.62667 7.12663 10 7.49996 10 7.95996C10 8.41996 9.62667 8.79329 9.16667 8.79329H1.66667V16.2933C1.66667 17.6716 2.78833 18.7933 4.16667 18.7933H7.5C7.96 18.7933 8.33333 19.1666 8.33333 19.6266C8.33333 20.0866 7.96 20.46 7.5 20.46H4.16667C1.86917 20.46 0 18.5908 0 16.2933V6.29329C0 3.99579 1.86917 2.12663 4.16667 2.12663H5V1.29329C5 0.833294 5.37333 0.459961 5.83333 0.459961C6.29333 0.459961 6.66667 0.833294 6.66667 1.29329V2.12663H13.3333V1.29329C13.3333 0.833294 13.7058 0.459961 14.1667 0.459961C14.6275 0.459961 15 0.833294 15 1.29329V2.12663H15.8333C18.1308 2.12663 20 3.99579 20 6.29329Z" fill="#DC1915"/>
</g>
<defs>
<clipPath id="clip0_4004_985">
<rect width="20" height="20" fill="white" transform="translate(0 0.459961)"/>
</clipPath>
</defs>
</svg>
