<svg width="45" height="46" viewBox="0 0 45 46" fill="none" xmlns="http://www.w3.org/2000/svg">
<g clip-path="url(#clip0_4004_998)">
<path fill-rule="evenodd" clip-rule="evenodd" d="M22.414 45.4598L22.4342 45.4599H22.4272L22.414 45.4598ZM22.5728 45.4599H22.5658L22.586 45.4598L22.5728 45.4599ZM22.3453 45.4594L22.367 45.4595H22.3545L22.3453 45.4594ZM22.6455 45.4595H22.633L22.6547 45.4594L22.6455 45.4595ZM22.279 45.4589L22.2935 45.459L22.2819 45.4589H22.279ZM22.7181 45.4589L22.7065 45.459L22.721 45.4589H22.7181ZM22.7907 45.4581L22.7856 45.4582L22.8052 45.4579L22.7907 45.4581ZM22.1948 45.4579L22.2144 45.4582L22.2093 45.4581L22.1948 45.4579ZM22.8632 45.4571L22.8513 45.4572L22.8755 45.4569L22.8632 45.4571ZM22.1245 45.4569L22.1487 45.4572L22.1368 45.4571L22.1245 45.4569ZM22.9356 45.4558L22.9196 45.4561L22.9419 45.4557L22.9356 45.4558ZM22.0581 45.4557L22.0804 45.4561L22.0644 45.4558L22.0581 45.4557ZM21.9757 45.454L21.9955 45.4544L21.992 45.4543L21.9757 45.454ZM23.008 45.4543L23.0045 45.4544L23.0243 45.454L23.008 45.4543ZM21.9035 45.4521L21.9306 45.4528L21.9197 45.4526L21.9035 45.4521ZM23.0803 45.4526L23.0694 45.4528L23.0965 45.4521L23.0803 45.4526ZM23.1527 45.4506L23.135 45.4512L23.1628 45.4504L23.1527 45.4506ZM21.8372 45.4504L21.865 45.4512L21.8473 45.4506L21.8372 45.4504ZM21.7739 45.4484L21.7937 45.4491L21.7751 45.4484L21.758 45.4479L21.7739 45.4484ZM23.2249 45.4484L23.2063 45.4491L23.2261 45.4484L23.242 45.4479L23.2249 45.4484ZM23.2971 45.4461L23.2872 45.4464L23.3176 45.4454L23.2971 45.4461ZM21.6824 45.4454L21.7128 45.4464L21.7029 45.4461L21.6824 45.4454ZM21.6166 45.4429L21.6484 45.4441L21.6308 45.4434L21.6166 45.4429ZM23.3692 45.4434L23.3516 45.4441L23.3834 45.4429L23.3692 45.4434ZM21.552 45.4403L21.5831 45.4416L21.5588 45.4406L21.552 45.4403ZM23.4412 45.4406L23.4169 45.4416L23.448 45.4403L23.4412 45.4406ZM21.4615 45.4363L21.4949 45.4378L21.4867 45.4375L21.4615 45.4363ZM23.5133 45.4375L23.5051 45.4378L23.5385 45.4363L23.5133 45.4375ZM21.3965 45.4333L21.4312 45.4349L21.4148 45.4342L21.3965 45.4333ZM23.5852 45.4342L23.5688 45.4349L23.6035 45.4333L23.5852 45.4342ZM21.3325 45.4301L21.3674 45.4318L21.3429 45.4307L21.3325 45.4301ZM23.6571 45.4307L23.6326 45.4318L23.6674 45.4301L23.6571 45.4307ZM23.729 45.4269L23.6972 45.4286L23.7254 45.4271L23.7586 45.4252L23.729 45.4269ZM21.2746 45.4271L21.3028 45.4286L21.271 45.4269L21.2414 45.4252L21.2746 45.4271ZM23.8007 45.4229L23.7866 45.4237L23.8223 45.4216L23.8007 45.4229ZM21.1777 45.4216L21.2134 45.4237L21.1993 45.4229L21.1777 45.4216ZM21.1142 45.4179L21.1498 45.42L21.1276 45.4187L21.1142 45.4179ZM23.8724 45.4187L23.8502 45.42L23.8858 45.4179L23.8724 45.4187ZM21.0537 45.4141L21.0858 45.4161L21.0559 45.4143L21.0258 45.4123L21.0537 45.4141ZM23.9441 45.4143L23.9142 45.4161L23.9463 45.4141L23.9742 45.4123L23.9441 45.4143ZM24.0157 45.4096L24.0049 45.4103L24.039 45.408L24.0157 45.4096ZM20.961 45.408L20.995 45.4103L20.9843 45.4096L20.961 45.408ZM20.8977 45.4036L20.9311 45.406L20.9128 45.4048L20.8977 45.4036ZM24.0872 45.4048L24.0689 45.406L24.1023 45.4036L24.0872 45.4048ZM20.8345 45.3991L20.8651 45.4013L20.8413 45.3997L20.8345 45.3991ZM24.1587 45.3997L24.1349 45.4013L24.1655 45.3991L24.1587 45.3997ZM20.7495 45.3927L20.7764 45.3947L20.7699 45.3943L20.7495 45.3927ZM24.2301 45.3943L24.2236 45.3947L24.2505 45.3927L24.2301 45.3943ZM24.3014 45.3888L24.2886 45.3897L24.3159 45.3875L24.3014 45.3888ZM20.6841 45.3875L20.7114 45.3897L20.6986 45.3888L20.6841 45.3875ZM20.6204 45.3824L20.6436 45.3843L20.6272 45.383L20.6204 45.3824ZM24.3728 45.383L24.3564 45.3843L24.3796 45.3824L24.3728 45.383ZM20.5502 45.3765L20.5572 45.3771L20.556 45.377L20.5502 45.3765ZM24.444 45.377L24.4428 45.3771L24.4498 45.3765L24.444 45.377ZM24.5152 45.3708L24.5088 45.3713L24.5247 45.3699L24.5152 45.3708ZM20.4753 45.3699L20.4912 45.3713L20.4848 45.3708L20.4753 45.3699ZM20.4093 45.3639L20.4212 45.365L20.4138 45.3643L20.4093 45.3639ZM24.5862 45.3643L24.5788 45.365L24.5907 45.3639L24.5862 45.3643ZM18.9844 45.1864C8.23368 43.4966 0 34.1822 0 22.96C0 10.5419 10.0819 0.459961 22.5 0.459961C34.9181 0.459961 45 10.5419 45 22.96C45 34.1822 36.7663 43.4966 26.0156 45.1864V29.4639H31.2583L32.2559 22.96H26.0156V18.7394C26.0156 16.96 26.8873 15.2256 29.6823 15.2256H32.5195V9.68848C32.5195 9.68848 29.9447 9.24902 27.483 9.24902C22.3435 9.24902 18.9844 12.3639 18.9844 18.0029V22.96H13.2715V29.4639H18.9844V45.1864Z" fill="#DC1915"/>
</g>
<defs>
<clipPath id="clip0_4004_998">
<rect width="45" height="45" fill="white" transform="translate(0 0.459961)"/>
</clipPath>
</defs>
</svg>
