<svg width="20" height="21" viewBox="0 0 20 21" fill="none" xmlns="http://www.w3.org/2000/svg">
<g clip-path="url(#clip0_4004_977)">
<path d="M10 5.45992C9.34073 5.45992 8.69626 5.65542 8.1481 6.02169C7.59994 6.38796 7.17269 6.90855 6.9204 7.51764C6.66811 8.12673 6.6021 8.79695 6.73072 9.44355C6.85933 10.0902 7.1768 10.6841 7.64298 11.1503C8.10915 11.6164 8.7031 11.9339 9.3497 12.0625C9.9963 12.1912 10.6665 12.1251 11.2756 11.8729C11.8847 11.6206 12.4053 11.1933 12.7716 10.6452C13.1378 10.097 13.3333 9.45252 13.3333 8.79325C13.3333 7.9092 12.9821 7.06135 12.357 6.43623C11.7319 5.81111 10.8841 5.45992 10 5.45992ZM10 10.4599C9.67037 10.4599 9.34813 10.3622 9.07405 10.179C8.79997 9.9959 8.58635 9.7356 8.4602 9.43106C8.33406 9.12651 8.30105 8.7914 8.36536 8.4681C8.42967 8.1448 8.5884 7.84783 8.82149 7.61474C9.05458 7.38165 9.35155 7.22292 9.67485 7.15861C9.99815 7.0943 10.3333 7.12731 10.6378 7.25345C10.9424 7.3796 11.2026 7.59322 11.3858 7.8673C11.5689 8.14138 11.6667 8.46362 11.6667 8.79325C11.6667 9.23528 11.4911 9.6592 11.1785 9.97176C10.866 10.2843 10.442 10.4599 10 10.4599Z" fill="#DC1915"/>
<path d="M10 20.4599C9.29829 20.4635 8.60593 20.2989 7.98089 19.98C7.35585 19.661 6.81633 19.1969 6.4075 18.6266C3.23167 14.2458 1.62083 10.9524 1.62083 8.83742C1.62083 6.61513 2.50364 4.48385 4.07504 2.91245C5.64643 1.34105 7.77771 0.458252 10 0.458252C12.2223 0.458252 14.3536 1.34105 15.925 2.91245C17.4964 4.48385 18.3792 6.61513 18.3792 8.83742C18.3792 10.9524 16.7683 14.2458 13.5925 18.6266C13.1837 19.1969 12.6442 19.661 12.0191 19.98C11.3941 20.2989 10.7017 20.4635 10 20.4599ZM10 2.27742C8.26035 2.2794 6.59252 2.97136 5.36239 4.20148C4.13227 5.4316 3.44032 7.09943 3.43833 8.83909C3.43833 10.5141 5.01583 13.6116 7.87917 17.5608C8.12225 17.8956 8.44114 18.1681 8.80976 18.356C9.17838 18.5439 9.58625 18.6418 10 18.6418C10.4138 18.6418 10.8216 18.5439 11.1902 18.356C11.5589 18.1681 11.8778 17.8956 12.1208 17.5608C14.9842 13.6116 16.5617 10.5141 16.5617 8.83909C16.5597 7.09943 15.8677 5.4316 14.6376 4.20148C13.4075 2.97136 11.7397 2.2794 10 2.27742Z" fill="#DC1915"/>
</g>
<defs>
<clipPath id="clip0_4004_977">
<rect width="20" height="20" fill="white" transform="translate(0 0.459961)"/>
</clipPath>
</defs>
</svg>
