<svg width="30" height="31" viewBox="0 0 30 31" fill="none" xmlns="http://www.w3.org/2000/svg">
<g clip-path="url(#clip0_4001_576)">
<path d="M21.875 2.8562C20.4674 2.87809 19.0906 3.27102 17.8835 3.99529C16.6763 4.71956 15.6817 5.74954 15 6.9812C14.3183 5.74954 13.3237 4.71956 12.1165 3.99529C10.9094 3.27102 9.53256 2.87809 8.125 2.8562C5.88118 2.95369 3.76713 3.93527 2.24473 5.58649C0.722326 7.23771 -0.0846869 9.42436 1.26939e-06 11.6687C1.26939e-06 17.3525 5.9825 23.56 11 27.7687C12.1203 28.7101 13.5367 29.2262 15 29.2262C16.4633 29.2262 17.8797 28.7101 19 27.7687C24.0175 23.56 30 17.3525 30 11.6687C30.0847 9.42436 29.2777 7.23771 27.7553 5.58649C26.2329 3.93527 24.1188 2.95369 21.875 2.8562Z" fill="#F5F4F4"/>
</g>
<defs>
<clipPath id="clip0_4001_576">
<rect width="30" height="30" fill="white" transform="translate(0 0.459961)"/>
</clipPath>
</defs>
</svg>
