<svg width="76" height="77" viewBox="0 0 76 77" fill="none" xmlns="http://www.w3.org/2000/svg">
<path d="M8.61914 70.2278C10.1095 70.4735 11.7637 70.7028 13.6962 70.9485C13.7781 71.2433 13.86 71.5217 13.9419 71.8001C14.1221 72.4225 14.3186 73.0612 14.4496 73.6836C14.6625 74.7154 15.6943 75.4851 16.8244 75.4851C17.0373 75.4851 17.2339 75.4524 17.4468 75.4032C18.7079 75.0593 19.4285 73.7818 19.1501 72.4389C19.0845 72.1277 19.0027 71.8001 18.9208 71.5217C26.1761 72.2095 34.3487 72.5535 43.2091 72.5535C47.7293 72.5535 52.3806 72.4552 57.0483 72.2914C56.9828 72.6681 56.8845 73.0121 56.7371 73.4051C56.5406 73.9456 56.5733 74.5516 56.8681 75.1248C57.1957 75.7635 57.7689 76.2549 58.424 76.435C58.6369 76.5005 58.8662 76.5333 59.0791 76.5333C60.1109 76.5333 60.9953 75.8618 61.4048 74.7809C61.6996 74.0111 61.8797 73.1595 61.9453 72.0785C64.4347 71.9475 66.8258 71.8001 69.0532 71.6363C70.5272 71.5217 71.3297 70.3261 71.3625 69.1633C76.3741 54.6362 76.2595 37.7506 71.0186 20.3083C70.7074 19.2601 69.823 18.605 68.7421 18.605C68.611 18.605 68.48 18.605 68.349 18.6378C68.1197 18.5722 67.8904 18.5395 67.6611 18.5395C62.5676 18.5395 57.0483 18.4248 51.2014 18.3266C45.1089 18.2119 38.8198 18.0973 32.5962 18.0809C36.6907 15.4113 40.7032 12.5452 44.5356 9.56444C45.3054 8.97484 45.5838 8.13958 45.289 7.28793C44.9451 6.27251 43.8478 5.51913 42.7341 5.51913C42.1772 5.51913 41.6368 5.69928 41.1782 6.0596C35.6261 10.367 29.6155 14.4287 23.31 18.1137H22.6713C21.5903 12.3159 20.0836 6.97675 18.1182 1.80136C17.7416 0.802318 16.8244 0.179962 15.7271 0.179962C14.8755 0.179962 14.0566 0.573029 13.6307 1.19539C13.2377 1.75223 13.1885 2.45648 13.4506 3.1771C15.2849 7.99218 16.6934 12.9219 17.7579 18.2447C13.6962 18.3757 10.1423 18.5886 6.88307 18.867C5.94954 18.9489 5.21253 19.473 4.83584 20.3083C4.55742 20.5867 4.36089 20.9306 4.24624 21.3073C-0.814498 37.9308 -0.15938 54.4233 6.14607 69.0323C6.58827 70.0641 7.57096 70.539 8.61914 70.2442M8.65188 23.5838C14.5479 23.1253 21.7378 22.9124 30.5981 22.9124C37.4768 22.9124 44.4865 23.0434 51.2669 23.158C56.7862 23.2563 61.9944 23.3546 66.8258 23.3709C71.2478 39.0936 71.297 53.7354 66.9732 66.9031C59.1119 67.4436 50.7756 67.7384 42.8651 67.7384C30.074 67.7384 18.7079 66.985 9.94574 65.5602C4.78673 52.9001 4.34451 38.3894 8.65188 23.5838ZM15.2194 63.5784C21.9998 64.6921 29.1733 65.2326 37.1493 65.2326C42.2264 65.2326 47.6966 65.0033 53.8874 64.5611C55.214 64.4629 55.9346 63.4147 56.0165 62.3829C59.6032 51.9666 59.505 39.8634 55.7545 27.3835C55.4433 26.3353 54.4934 25.713 53.396 25.8112C53.2159 25.7785 53.0521 25.7457 52.8719 25.7457C49.0887 25.7457 45.2235 25.6638 41.4894 25.5819C37.4932 25.5001 33.3824 25.4182 29.3207 25.4182C23.3919 25.4182 18.4949 25.5983 13.9092 26.0078C13.1066 26.0733 12.4188 26.5482 12.0585 27.2525C11.8456 27.4981 11.6818 27.7766 11.5835 28.1041C7.94764 40.0599 8.42259 51.9175 12.9592 62.4156C13.3523 63.3328 14.2695 63.8077 15.2194 63.5948M15.6124 30.3643C19.7396 30.0531 24.1289 29.9057 29.4025 29.9057C33.4315 29.9057 37.5259 29.9876 41.5057 30.0695C44.9123 30.135 48.4172 30.2169 51.8893 30.2332C54.8537 41.0426 54.9028 51.1149 52.0039 60.1882C46.4191 60.5649 41.4894 60.7451 36.9363 60.7451C29.4844 60.7451 22.8023 60.2538 16.5296 59.2547C13.0575 50.509 12.73 40.5513 15.6288 30.3479M63.8615 36.2766C62.3056 36.2766 61.5031 35.0647 61.5031 33.8527C61.5031 33.2304 61.716 32.6408 62.0927 32.1986C62.5349 31.6909 63.1408 31.4288 63.8615 31.4288C65.4174 31.4288 66.2363 32.6572 66.2363 33.8527C66.2363 34.4751 66.0233 35.0647 65.6466 35.5069C65.2208 36.0146 64.5985 36.2766 63.8778 36.2766M64.1399 39.0117C65.6958 39.0117 66.4983 40.2401 66.4983 41.4357C66.4983 42.058 66.2854 42.6476 65.9087 43.0898C65.4829 43.5975 64.8605 43.8596 64.1399 43.8596C62.6004 43.8596 61.7815 42.6312 61.7815 41.4357C61.7815 40.8133 61.9944 40.2237 62.3711 39.7815C62.7969 39.2738 63.4193 39.0117 64.1562 39.0117" fill="#DC1915"/>
</svg>
