<svg width="104" height="58" viewBox="0 0 104 58" fill="none" xmlns="http://www.w3.org/2000/svg">
<path d="M103.355 35.9091C102.684 31.6181 101.111 27.9167 97.3279 25.5256C93.6102 23.1836 87.4358 23.0853 82.7026 23.331C82.6371 23.118 82.5388 22.9051 82.3587 22.7086C76.9048 16.5505 74.612 10.5071 67.5204 5.67568C60.4943 0.893365 51.4865 0.385652 43.314 0.467542C30.1298 0.598564 14.7347 6.03599 14.833 21.3329C-4.21444 16.5505 -4.29634 55.7754 13.1624 51.1077C13.8503 54.0885 15.9139 56.5452 19.992 57.4296C25.4621 58.6088 30.1953 55.1366 32.4555 50.4526C46.6878 51.2879 62.738 53.0239 76.8229 50.2233C77.9366 53.2696 80.2132 55.6771 83.7508 55.9228C88.8606 56.2995 92.7749 52.4179 94.3308 47.8813C102.454 52.4343 104.239 41.6086 103.339 35.8927M99.0476 32.0767C98.5727 32.2896 98.1141 32.5189 97.6064 32.5844C96.6237 32.6991 95.7229 32.3224 94.9041 31.8147C93.4628 30.9139 92.4801 29.1123 92.6439 27.3926C95.2971 27.884 97.6228 29.014 99.0476 32.0767ZM29.1308 47.9632C27.7223 52.4343 21.7935 55.7754 17.8465 52.2378C15.3079 49.9777 16.8638 45.7194 18.2887 43.3446C18.8128 42.4602 19.4351 41.756 20.1066 41.15C20.2867 41.15 20.4833 41.15 20.6634 41.1173C23.1201 40.4785 24.6432 39.3321 27.2473 40.5113C30.1134 41.8051 29.8841 45.5065 29.1144 47.9632M90.6949 44.6385C90.5148 47.914 87.272 52.4016 83.5379 51.5663C80.8847 50.9603 80.1149 47.1934 80.0985 44.9497C80.0985 42.2473 81.1303 40.3966 82.9974 39.1028C83.374 39.3157 83.849 39.414 84.3567 39.2993C86.1255 38.939 87.8616 38.2839 89.352 39.6596C90.6622 40.8716 90.7768 42.9843 90.6786 44.6385M94.8877 45.5393C94.9696 45.0643 95.0187 44.573 95.0515 44.098C95.3299 37.5633 89.1391 32.1095 82.9319 35.7781C77.822 35.8927 75.4472 41.887 76.1187 47.3081C62.0502 49.1424 47.5067 47.6356 33.3399 48.0778C33.6838 46.8167 33.8639 45.5229 33.8312 44.2454C33.7493 40.7078 31.4564 37.3831 28.1154 36.1875C27.018 35.7945 25.7406 35.5488 24.4958 35.5324C18.5835 33.9601 12.6711 42.2309 12.884 49.126C10.6075 48.7002 8.19994 48.7329 6.2346 47.177C3.35211 44.8841 3.36847 39.676 3.43398 36.3677C3.58138 29.3744 6.36562 22.119 14.6528 24.3136C15.4389 24.5265 16.0121 24.1171 16.2742 23.5602C16.3888 23.462 16.4707 23.331 16.5199 23.1344C19.6644 6.08513 33.9131 3.38279 48.8824 3.85775C55.8266 4.08704 62.2303 6.44544 67.9462 10.2942C73.6457 14.143 75.5455 20.2847 80.2296 24.805C80.4261 25.0015 80.639 25.0998 80.8519 25.1653C83.6525 26.9177 87.2229 26.803 90.5639 27.1142C90.2364 27.8676 90.0726 28.6865 90.22 29.6364C90.482 31.3397 91.4156 32.9283 92.7422 34.0257C94.5437 35.516 97.9176 36.4332 100.063 35.1885C100.505 37.1047 100.685 39.07 100.636 41.019C100.522 45.2117 98.9821 46.5383 94.9041 45.5393M48.5221 8.247C42.364 7.29709 36.075 7.34622 30.0316 8.90211C24.2338 10.3925 22.596 16.8617 21.2694 21.9388C20.7781 22.4138 20.8436 23.462 21.6461 23.6094C37.2214 26.5246 54.5327 24.4938 70.3537 24.3464C70.9433 24.3464 71.32 24.0516 71.5329 23.6585C72.1553 23.6094 72.7285 23.1999 72.663 22.4629C71.6803 11.6863 56.973 9.55722 48.5057 8.247M23.4968 21.8078C25.2984 18.0409 26.6086 13.5043 30.8013 11.7682C33.7985 10.5235 37.6636 10.3597 41.365 10.6054C39.9565 13.7336 42.2494 18.5323 42.8881 22.0535C36.4025 22.2009 29.9333 22.2173 23.4968 21.8078ZM45.1155 22.0044C45.2138 20.4976 45.05 19.0072 44.8043 17.5005C44.575 16.1739 44.2966 14.88 44.1656 13.5534C44.0837 12.6526 44.2311 11.7682 44.1983 10.8838C45.4103 11.0312 46.5895 11.195 47.6541 11.3752C54.6638 12.538 66.8161 13.8973 69.7969 21.4475C61.608 21.3984 53.3699 21.7751 45.1319 22.0044" fill="#DC1915"/>
</svg>
