<svg width="92" height="85" viewBox="0 0 92 85" fill="none" xmlns="http://www.w3.org/2000/svg">
<path d="M11.8978 40.3079C11.8965 40.107 11.6619 39.9986 11.5077 40.1268C9.98829 41.3905 8.52947 42.6514 6.9995 43.8212C5.93207 44.6367 5.15983 44.301 4.40341 43.2052C3.3821 41.7288 2.20661 40.3595 1.09702 38.9439C0.879578 38.6676 0.639736 38.4072 0.446018 38.1151C-0.131183 37.2427 0.0216828 36.2937 0.845315 35.6592C4.48511 32.8597 8.14204 30.0827 11.766 27.2647C13.9852 25.5384 16.0423 23.5769 18.3762 22.0278C22.6683 19.1781 26.7535 16.0719 30.7675 12.8521C32.8049 11.2183 35.0307 9.81859 37.0496 8.16373C40.157 5.61535 43.5833 3.56528 46.9687 1.44119C48.6107 0.411529 48.7794 0.433999 50.3357 1.63813C55.0271 5.26508 59.7462 8.85766 64.4521 12.4661C65.1321 12.9869 65.8082 13.5156 66.5646 14.1038C66.7135 14.2188 66.9309 14.1262 66.9507 13.9386C66.9771 13.6861 66.9995 13.4773 67.0008 13.2684C67.0087 11.5065 67.0021 9.74457 67.0074 7.98132C67.01 6.83402 67.3948 6.21015 68.4873 5.93918C71.0755 5.2968 73.6478 5.23336 76.1372 6.41634C76.8027 6.73225 77.1585 7.25435 77.1941 7.96546C77.252 9.12994 77.2309 10.2984 77.2968 11.4629C77.4616 14.4038 77.6197 17.3461 77.8582 20.2804C77.9268 21.1197 78.2391 21.9445 78.4947 22.7587C78.5554 22.9504 78.8268 23.0905 79.0245 23.2187C82.742 25.6415 86.4688 28.0498 90.1745 30.4898C90.7148 30.8454 91.176 31.3331 91.6267 31.805C91.7677 31.953 91.856 32.2782 91.798 32.4698C91.4765 33.5219 91.1536 34.5794 90.7319 35.5932C90.3445 36.5224 89.8213 37.3947 89.3772 38.3015C88.7289 39.6246 87.668 39.8836 86.4055 39.0271C85.8231 38.6319 85.2314 38.2526 84.5461 37.8071C84.3867 37.704 84.1758 37.8177 84.1758 38.008C84.1758 38.1984 84.1758 38.3372 84.1758 38.4839C84.16 44.5191 84.1521 50.5543 84.1271 56.5895C84.1033 62.2705 84.0137 67.9528 84.0519 73.6325C84.0704 76.2919 84.3392 78.9486 84.4591 81.608C84.5053 82.643 83.9228 83.8841 82.5444 83.904C80.8997 83.9277 79.2564 84.0824 77.6131 84.0969C72.1257 84.1472 66.6371 84.1723 61.1484 84.1815C59.9241 84.1842 58.6959 84.1234 57.477 84.0176C56.6691 83.9476 56.2435 83.4004 56.1815 82.5941C55.9153 79.1324 55.7335 75.6614 55.3553 72.2129C55.1721 70.5448 54.7069 68.8913 54.2141 67.2787C53.4089 64.6391 50.4701 63.1574 47.7054 63.78C46.7486 63.9954 45.8156 64.3298 44.8905 64.6589C43.3197 65.2194 42.5672 66.479 42.243 68.0202C41.4445 71.8243 41.1255 75.6812 41.0491 79.5646C41.028 80.6802 40.9345 81.8023 40.7645 82.9034C40.6235 83.8194 40.0766 84.2119 39.1396 84.2053C34.0015 84.1736 28.8633 84.1049 23.7252 84.0969C20.6968 84.093 17.6698 84.1762 14.6415 84.2225C13.5569 84.2397 12.898 83.6634 12.8506 82.565C12.5765 76.2099 12.2154 69.8575 12.081 63.4984C11.9176 55.7713 11.9505 48.039 11.8965 40.3092V40.304L11.8978 40.3079ZM58.887 80.963C58.8975 81.1586 59.0583 81.312 59.2534 81.312H59.256C61.404 81.312 63.5507 81.3212 65.6988 81.3067C70.7486 81.2736 75.7972 81.2221 80.847 81.2023C81.4005 81.1996 81.5573 81.0318 81.5323 80.4885C81.4045 77.7194 81.2147 74.9476 81.2173 72.1772C81.2239 63.9412 81.3056 55.7066 81.3676 47.4706C81.3966 43.6428 81.4506 39.8162 81.4756 35.9884C81.4756 35.8628 81.3109 35.7015 81.1844 35.6143C76.7025 32.5187 72.164 29.5011 67.7414 26.3236C60.9428 21.4383 54.1429 16.5596 47.0847 12.0524C46.692 11.8012 46.4113 11.677 46.0001 12.0167C43.7836 13.846 41.567 15.6767 39.3149 17.4624C36.8031 19.4543 34.2584 21.4079 31.7177 23.3628C29.8583 24.793 27.9619 26.1768 26.1144 27.6229C25.1313 28.3921 24.2286 29.2619 23.2705 30.0629C20.4557 32.4169 17.6276 34.7538 14.822 37.1185C14.6613 37.2546 14.5861 37.5771 14.5901 37.8111C14.6151 39.4184 14.7021 41.0243 14.714 42.6303C14.7614 49.2801 14.7825 55.93 14.8299 62.5798C14.8431 64.495 14.8668 66.4129 14.9617 68.3255C15.1633 72.4125 15.4216 76.4967 15.6312 80.5837C15.6549 81.0569 16.0581 81.4203 16.5299 81.3926C17.7199 81.3239 18.9112 81.2551 20.1025 81.2604C25.8547 81.2855 31.6057 81.3397 37.3566 81.382C37.3592 81.382 37.3619 81.382 37.3645 81.382C37.7783 81.3847 38.1222 81.0621 38.1657 80.6498C38.2211 80.1303 38.2751 79.6412 38.2712 79.1535C38.2435 75.4182 38.6876 71.7291 39.3491 68.0638C39.7669 65.7494 40.6617 63.6504 42.8624 62.5375C44.2158 61.8528 45.7049 61.3783 47.1848 61.0188C51.2753 60.0235 55.6096 62.5031 56.959 66.4671C57.9659 69.4213 58.2755 72.4759 58.5655 75.5398C58.7341 77.3215 58.7869 79.1152 58.8857 80.9591L58.887 80.963ZM74.4833 19.5719C74.3713 15.949 74.2606 12.3894 74.1473 8.74134C74.1407 8.54175 73.9786 8.38182 73.7783 8.38182C72.7095 8.38182 71.6078 8.38314 70.5075 8.38182C69.9962 8.38182 69.8183 8.59066 69.8038 9.13787C69.7431 11.4404 69.6193 13.7403 69.5283 16.0428C69.5244 16.1512 69.5863 16.3045 69.6707 16.3693C71.1466 17.5113 72.6278 18.6454 74.0985 19.7715C74.2593 19.8945 74.4886 19.7742 74.4833 19.5719ZM47.7752 27.8026C48.9375 27.8026 50.1012 27.7907 51.2635 27.8066C52.5022 27.8238 53.1506 28.223 53.2547 29.4509C53.4919 32.2478 53.5907 35.0565 53.679 37.8626C53.7041 38.6544 53.0372 39.2399 52.182 39.2294C49.3566 39.191 46.5312 39.1183 43.7071 39.0073C42.84 38.9729 42.2641 38.4046 42.2075 37.5296C42.048 35.075 41.9031 32.6178 41.8517 30.1594C41.8253 28.8719 43.0113 27.8145 44.2883 27.8053C45.4506 27.796 46.6129 27.804 47.7765 27.804L47.7752 27.8026ZM47.9083 36.369C47.9083 36.377 47.9083 36.3849 47.9083 36.3928C48.7425 36.3928 49.578 36.4193 50.4108 36.3717C50.5927 36.3611 50.9116 36.0822 50.909 35.9302C50.8866 34.348 50.8299 32.7646 50.7271 31.185C50.7153 30.9987 50.3713 30.6867 50.175 30.6815C48.4855 30.6418 46.7934 30.6471 45.104 30.6775C44.9459 30.6801 44.6533 30.9551 44.6573 31.0978C44.6929 32.68 44.7825 34.2608 44.8405 35.843C44.8563 36.2844 45.0763 36.3862 45.4717 36.3756C46.2835 36.3545 47.0965 36.369 47.9083 36.369ZM21.1001 48.4408C21.108 48.3099 21.1264 48.1764 21.1106 48.0469C20.963 46.8309 21.2833 46.2295 22.5299 46.0814C24.5448 45.8422 26.5848 45.6598 28.609 45.6941C30.5185 45.7272 31.039 46.1898 31.3197 48.0747C31.6096 50.0163 31.7678 52.0069 31.7019 53.9658C31.6399 55.7925 30.7926 56.4666 28.9556 56.5657C27.1409 56.6635 25.321 56.7191 23.5038 56.7098C21.5864 56.7006 20.9156 55.963 20.9182 54.0385C20.9182 53.4886 21.0157 49.7546 21.0988 48.4395L21.1001 48.4408ZM23.6316 53.8746C25.3751 53.8746 27.0316 53.8865 28.6854 53.8535C28.8172 53.8508 29.0623 53.5323 29.0544 53.3723C28.9753 51.8404 28.862 50.3098 28.7249 48.7818C28.7118 48.6404 28.4561 48.4064 28.3164 48.4091C26.7509 48.4355 25.1853 48.5003 23.6316 48.5531V53.8746ZM74.1143 50.6521C74.0247 51.8113 73.9536 53.0181 73.8323 54.2196C73.744 55.0972 73.209 55.6603 72.3498 55.7396C70.348 55.9247 68.3423 56.1058 66.3353 56.1586C64.6696 56.2022 63.896 55.3325 63.6799 53.6882C63.3742 51.3632 63.3083 49.0528 63.7089 46.7344C63.8407 45.9678 64.2979 45.517 65.0122 45.4628C66.4526 45.3545 67.9008 45.3293 69.3465 45.2963C70.2017 45.2778 71.0583 45.3042 71.9149 45.3214C73.0311 45.3439 73.7546 45.9374 73.8745 47.0463C74.0023 48.224 74.0366 49.4123 74.1156 50.6521H74.1143ZM66.4816 47.9914C66.1337 47.9914 65.8622 48.2941 65.8978 48.6417C66.0625 50.2054 66.2154 51.6805 66.3906 53.1529C66.4064 53.2811 66.6265 53.486 66.7451 53.4834C68.1209 53.4411 69.4967 53.3816 70.8699 53.2772C71.0293 53.2653 71.2903 52.9546 71.2955 52.7775C71.3377 51.3275 71.3416 49.8776 71.3245 48.4276C71.3232 48.2809 71.1031 48.0139 70.9819 48.0112C69.5059 47.9874 68.03 47.9914 66.4816 47.9927V47.9914Z" fill="#DC1915"/>
</svg>
