<svg width="56" height="73" viewBox="0 0 56 73" fill="none" xmlns="http://www.w3.org/2000/svg">
<path fill-rule="evenodd" clip-rule="evenodd" d="M54.0807 46.0105C54.1597 50.8868 53.1923 54.8156 50.7048 58.3297C49.9151 59.4353 49.2833 60.6593 48.4936 61.7649C46.322 64.8052 42.9855 66.2661 39.7675 67.6876C35.8783 69.4249 31.7719 70.8266 27.4285 70.8266C22.8681 70.8266 18.2878 70.5305 13.984 68.8524C12.602 68.3193 11.2793 67.4704 10.1342 66.503C8.5351 65.1408 7.05442 63.6404 5.67246 62.0413C3.91539 60.0078 3.24414 57.3821 2.61239 54.8945C1.90166 52.0516 1.80295 49.0113 1.6845 46.05C1.60553 44.2534 1.6845 42.3581 2.1978 40.6405C4.05358 34.1453 7.54798 29.0123 14.3196 26.6235C17.0243 25.6758 19.6303 25.6166 22.414 26.0115C26.0663 26.505 29.7976 26.5445 33.4697 26.9788C36.8851 27.3934 40.419 27.4329 43.5975 29.1307C45.1572 29.9599 46.6181 30.8286 47.7434 32.2106C48.4344 33.0595 49.1451 33.8887 49.8559 34.6981C52.8567 38.1135 54.7717 41.9041 54.1005 45.9907M48.2173 46.5238C48.7108 41.3513 47.0327 38.2122 42.7684 34.7376C39.7675 32.2895 36.1547 31.5393 32.5813 30.6904C26.9547 29.3677 21.4861 30.2955 16.0964 32.1118C15.7608 32.2303 15.4844 32.4672 15.208 32.6844C12.148 35.1324 9.6999 37.9951 8.57458 41.8843C7.46901 45.7341 7.19262 49.6233 7.98231 53.5126C9.34454 60.1065 14.1419 63.4035 20.1239 64.9631C25.474 66.3451 30.9624 65.7528 36.2731 64.3116C38.7212 63.6404 41.0705 62.6335 42.8078 60.6001C46.2825 56.5529 48.2173 51.9134 48.2173 46.5238ZM15.7608 24.0964C15.9319 22.0432 17.1757 20.5823 19.4921 19.7136C18.8998 18.0948 18.3865 16.4167 17.6561 14.857C16.9848 13.4356 17.4981 12.5274 18.5247 11.639C20.8346 9.64503 23.1247 7.65105 25.4346 5.65707C27.0337 4.27511 28.6328 2.91289 30.1925 1.49144C31.8508 -0.00898233 33.1736 0.109471 34.4568 1.96525C35.1478 2.97211 35.7796 4.0382 36.4508 5.08455C38.7014 8.53946 40.9718 11.9944 43.3606 15.627C42.7684 17.0682 42.1958 18.6081 41.4851 20.1085C41.031 21.0759 40.8533 21.8458 41.4259 22.9119C41.8997 23.8003 41.8207 24.9651 42.0379 26.3471C42.3735 26.505 43.0448 26.9393 43.7752 27.1565C46.8748 28.0844 48.849 30.414 50.8035 32.7633C50.9812 32.9805 51.0996 33.2766 51.3168 33.4741C55.0086 36.8303 55.7588 41.1933 55.976 45.9118C56.2919 53.1572 53.4687 59.1786 48.77 64.2721C45.3349 68.0035 40.6362 69.9579 35.7598 71.4189C29.6594 73.2549 23.5985 73.1365 17.4784 71.6558C15.8793 71.2609 14.2209 70.9451 12.7007 70.3331C8.73252 68.7142 5.71194 65.8121 3.56002 62.2584C2.17806 59.9683 1.44759 57.1649 0.875062 54.4997C0.0458823 50.6697 -0.230511 46.7607 0.203821 42.8122C0.954031 36.0998 3.79693 30.6114 9.46299 26.7814C10.766 25.9127 12.3454 25.4389 13.8063 24.8269C14.4578 24.5505 15.1488 24.3136 15.7608 24.0767M54.1202 45.971C54.7915 41.8843 52.8962 38.0938 49.8756 34.6783C49.1649 33.8689 48.4344 33.0397 47.7632 32.1908C46.6379 30.8088 45.1572 29.9402 43.6173 29.0913C40.4388 27.3934 36.9049 27.3539 33.4894 26.9393C29.8174 26.4853 26.0861 26.4655 22.4337 25.972C19.6501 25.5969 17.0441 25.6363 14.3394 26.584C7.56772 28.9728 4.07332 34.0861 2.23728 40.6011C1.74373 42.3186 1.64501 44.2139 1.72398 46.0105C1.86218 48.9718 1.94115 52.0121 2.65187 54.855C3.28363 57.3426 3.95487 59.9683 5.71194 62.0018C7.09391 63.5812 8.57458 65.1013 10.1737 66.4438C11.3188 67.4112 12.6415 68.2404 14.0235 68.7931C18.3273 70.4712 22.9075 70.7674 27.468 70.7674C31.8113 70.7674 35.898 69.3657 39.807 67.6283C43.025 66.2069 46.3615 64.746 48.5331 61.7056C49.3228 60.6001 49.9546 59.376 50.7443 58.2705C53.2318 54.7563 54.1992 50.8276 54.1202 45.9512M17.4586 22.0037C17.5968 23.7806 18.7222 24.1359 20.0252 24.2544C23.6972 24.59 27.3693 24.8861 31.0414 25.2218C33.4894 25.4587 35.9375 25.7943 38.3856 26.0115C39.6096 26.1102 40.2413 25.6363 40.3203 24.7874C40.3993 23.8398 39.7675 23.1488 38.6027 22.9711C37.7538 22.8329 36.8851 22.754 36.0362 22.6158C31.6139 21.8853 27.1127 22.3789 22.6904 21.4904C21.0123 21.1548 19.2355 21.1746 17.4586 22.0037ZM31.7126 4.41331C29.9358 7.3944 28.3564 10.0201 26.6586 12.863C29.0672 13.6922 31.298 13.4948 33.7264 13.9686C33.0354 10.7111 32.4234 7.78925 31.7126 4.41331ZM33.904 15.7257C31.3375 15.3901 29.0277 15.0939 26.4217 14.7583C26.9152 16.93 27.3298 18.7265 27.7642 20.6415H32.5221C32.9564 19.0621 33.3907 17.542 33.904 15.7257ZM35.2663 15.7652C34.9899 17.0287 34.6937 18.1935 34.4963 19.378C34.2791 20.6218 34.6542 21.1351 35.9375 21.2535C36.9246 21.3325 37.9512 21.2535 38.9383 21.2535C39.728 19.6742 40.4782 18.233 41.3666 16.4561C39.2147 16.1995 37.4379 16.0021 35.2663 15.7454M25.6912 20.4441C25.3753 18.233 25.1187 16.3574 24.8423 14.3635H19.5119C20.3015 16.318 21.032 18.154 21.7427 19.9308C23.105 20.1085 24.2303 20.2467 25.711 20.4441M40.5177 14.5806C38.2671 11.0467 36.2731 7.92745 34.2989 4.78841C34.1409 4.86738 33.9633 4.92661 33.8053 5.00558C34.4173 7.94719 35.0294 10.8888 35.6808 13.9686C37.2602 14.166 38.7409 14.3437 40.5177 14.5609M29.7187 4.51202C29.7187 4.51202 29.541 4.37382 29.462 4.31459C26.4809 6.94033 23.4998 9.54632 20.5187 12.1721C21.7427 12.5669 22.7496 12.6261 23.7565 12.5274C24.2105 12.4879 24.8028 12.2708 25.0397 11.9351C26.6586 9.48709 28.1787 6.97981 29.7384 4.51202M48.2567 46.4448C48.2567 51.8345 46.322 56.4542 42.8473 60.5211C41.0903 62.5546 38.7607 63.5614 36.3126 64.2327C30.9822 65.6739 25.5135 66.2859 20.1633 64.8842C14.2012 63.3245 9.38402 60.0275 8.04154 53.4336C7.2321 49.5443 7.52824 45.6551 8.63381 41.8053C9.75912 37.9161 12.1874 35.0535 15.2672 32.6054C15.5436 32.3882 15.8398 32.1316 16.1557 32.0329C21.5256 30.2166 27.014 29.2887 32.6405 30.6114C36.2139 31.4603 39.8267 32.2303 42.8276 34.6586C47.0919 38.1333 48.77 41.292 48.2765 46.4448M26.5007 63.8181C28.9487 63.5614 31.4362 63.4825 33.8448 62.9889C37.5761 62.2189 41.2285 60.9752 43.2619 57.3821C45.2954 53.7692 46.7563 49.9787 46.6971 45.6551C46.6379 40.4234 43.9529 36.9092 39.6293 34.8165C32.5418 31.3814 25.1187 31.0655 17.6363 33.6123C17.0243 33.8294 16.4123 34.1256 15.9187 34.5204C13.7668 36.2972 12.069 38.3899 10.9437 41.0156C9.46299 44.4508 9.02866 48.0439 9.54196 51.6765C10.0355 55.2104 11.5754 58.3494 14.7737 60.3237C18.3668 62.5348 22.1771 63.9958 26.5204 63.8378" fill="#DC1915"/>
</svg>
