<svg width="62" height="98" viewBox="0 0 62 98" fill="none" xmlns="http://www.w3.org/2000/svg">
<path d="M18.2177 84.0938C18.2177 84.0938 17.2841 81.2605 18.9874 81.2605C20.6907 81.2605 19.8063 84.0938 19.8063 84.0938C19.8063 84.0938 22.4759 84.6998 22.4759 87.3694C22.4759 90.039 21.3295 91.3001 18.9874 91.3001C16.6454 91.3001 15.1714 89.9407 15.1714 87.4185C15.1714 84.8963 18.2177 84.0938 18.2177 84.0938ZM28.896 84.0938C28.896 84.0938 25.8333 84.9127 25.8333 87.4185C25.8333 89.9243 27.3073 91.3001 29.6493 91.3001C31.9914 91.3001 33.1378 90.039 33.1378 87.3694C33.1378 84.6998 30.4682 84.0938 30.4682 84.0938C30.4682 84.0938 31.3363 81.2605 29.6493 81.2605C27.9624 81.2605 28.8796 84.0938 28.8796 84.0938M39.5579 84.0938C39.5579 84.0938 36.4952 84.9127 36.4952 87.4185C36.4952 89.9243 37.9693 91.3001 40.3113 91.3001C42.6533 91.3001 43.7998 90.039 43.7998 87.3694C43.7998 84.6998 41.1302 84.0938 41.1302 84.0938C41.1302 84.0938 41.9982 81.2605 40.3113 81.2605C38.6244 81.2605 39.5415 84.0938 39.5415 84.0938M29.6985 66.717C33.3343 66.717 36.266 69.665 36.266 73.2845C36.266 76.904 33.318 79.852 29.6985 79.852C26.079 79.852 23.131 76.904 23.131 73.2845C23.131 69.665 26.079 66.717 29.6985 66.717ZM29.895 79.0986C32.9904 79.0986 35.4962 76.5928 35.4962 73.4974C35.4962 70.402 32.9904 67.8962 29.895 67.8962C26.7996 67.8962 24.2938 70.402 24.2938 73.4974C24.2938 76.5928 26.7996 79.0986 29.895 79.0986ZM33.4654 73.1862C33.4654 71.0407 31.7294 69.3047 29.5839 69.3047C27.4384 69.3047 25.7023 71.0407 25.7023 73.1862C25.7023 75.3317 27.4384 77.0677 29.5839 77.0677C31.7294 77.0677 33.4654 75.3317 33.4654 73.1862ZM54.0523 47.9971C51.2844 48.2919 48.0089 47.9971 48.0089 47.9971L45.1755 62.5406C45.1755 62.5406 46.6986 62.3932 47.7304 62.8354C48.7459 63.2776 49.6958 63.5561 51.5137 68.797C53.3317 74.0378 57.9174 87.353 58.5725 90.4648C59.2277 93.5929 56.3943 96.5082 54.1342 96.8685C51.874 97.2288 7.80139 97.1633 5.83605 96.8685C3.87071 96.5737 0.38221 93.6748 0.889922 90.6777C1.39763 87.6969 7.65398 66.6842 9.25901 64.7844C10.864 62.9009 11.1588 62.5243 12.0923 62.3932C13.0422 62.2458 14.5654 62.3932 14.5654 62.3932C14.5654 62.3932 4.19825 10.623 5.09903 9.6567C5.80327 8.90332 7.93239 6.46302 12.0105 5.87342C16.0885 5.28382 20.2321 5.87342 20.9527 5.43122C21.6897 4.98902 21.1656 3.10557 22.9836 1.94275C24.8015 0.779925 34.5463 0.632525 36.5936 1.28764C38.6244 1.94275 39.3614 3.17108 39.5743 4.05549C39.7872 4.92351 39.5743 5.57862 39.5743 5.57862C39.5743 5.57862 42.1948 5.28382 44.8152 5.93893C47.4356 6.59405 54.2652 8.91969 55.0677 9.6567C55.8702 10.3773 55.2806 10.754 55.0677 12.2771C54.8548 13.8003 52.955 24.3476 52.955 24.3476C52.955 24.3476 56.0831 23.8399 57.8192 24.8553C59.5716 25.8707 60.6525 27.1154 61.0128 28.3438C61.3731 29.5885 60.7999 38.8092 59.4897 41.9537C58.1795 45.0819 56.8038 47.7023 54.0359 47.9971M57.4589 25.8052C55.5754 25.0027 52.5947 25.8052 52.5947 25.8052L52.1525 28.3438C52.1525 28.3438 53.5282 28.4093 54.8384 28.2783C56.1486 28.1309 57.3115 29.0808 57.5244 30.0962C57.7373 31.1116 56.296 36.0577 55.772 39.1204C55.2642 42.183 54.6746 43.1166 52.9386 43.6243C51.1862 44.132 49.0079 43.6898 49.0079 43.6898L48.6476 45.868C48.6476 45.868 51.0551 45.9335 53.5937 45.868C56.1322 45.8025 57.164 42.9528 57.5899 41.8718C58.0321 40.7745 59.9974 31.6193 60.3577 30.4565C60.718 29.2937 59.3423 26.6077 57.4425 25.8052M49.3682 41.8063C49.3682 41.8063 51.3827 42.4614 52.5291 41.8063C53.6756 41.1512 55.9194 30.2436 55.3134 30.1781C54.7074 30.129 51.7758 30.1781 51.7758 30.1781L49.3682 41.8063ZM22.3776 5.0054C22.3121 5.51311 23.0327 5.21831 25.211 5.51311C27.3892 5.80791 29.7149 5.57862 31.975 5.51311C34.2351 5.43122 38.5917 5.0054 38.5917 5.0054C38.5917 5.0054 37.7236 3.54777 37.134 3.12195C36.5444 2.67975 35.8893 2.53235 30.5829 2.53235C25.2765 2.53235 24.6214 2.59786 23.5241 2.97455C22.4267 3.33486 22.3612 5.0054 22.3612 5.0054M17.9228 6.38113C11.6665 6.23373 7.62123 8.16632 7.52296 8.93607C7.45745 9.5093 16.2523 9.5093 18.7254 9.73858C21.1984 9.9515 39.0175 9.73858 42.2111 9.73858H51.3008C51.3008 9.73858 47.3701 8.13356 46.2073 7.6586C45.0445 7.18365 41.1138 6.52853 37.9202 6.82334C34.7265 7.11814 24.1791 6.52853 17.9228 6.38113ZM46.0763 63.9983C44.1109 63.9327 14.6309 63.3923 11.9613 63.9983C11.2898 64.1457 10.7166 64.9482 10.3563 65.7507C9.99598 66.5532 2.72423 89.6786 2.57683 90.8415C2.42943 92.0043 3.88705 94.4118 6.14718 94.7722C8.40732 95.1325 50.744 95.3618 53.7247 94.7722C56.7055 94.1989 56.5581 91.5785 56.2633 89.6786C55.9685 87.7788 49.057 66.5532 48.7786 65.8162C48.4838 65.0956 48.0416 64.0638 46.0927 63.9983M44.3402 56.1369C44.7005 54.2535 48.9915 34.682 49.4992 31.5538C50.0069 28.4257 53.9376 11.2617 53.9376 11.2617C53.9376 11.2617 7.31003 10.8195 6.8842 10.8195C6.45838 10.8195 10.5201 31.7667 11.5355 34.9604C12.5509 38.1541 13.4353 48.1282 14.0904 50.2409C14.7455 52.3536 16.5635 61.4433 16.4816 61.7381C16.4161 62.0329 28.1098 61.7381 28.1098 61.7381C28.1098 61.7381 28.1098 58.8229 27.9624 58.5444C27.815 58.2496 23.8189 58.2496 23.3767 58.0367C22.9345 57.8238 22.5741 54.8267 22.5741 54.1879C22.5741 53.5492 20.8217 45.8189 21.1165 43.9354C21.4113 42.052 23.4422 42.5597 24.1792 43.3458C24.8998 44.1484 25.342 54.1061 26.21 54.9086C27.078 55.7111 33.4818 55.2689 34.0714 54.9741C34.6446 54.6793 35.7419 43.5588 36.6099 42.9692C37.4779 42.3796 38.7227 43.4769 38.7227 44.2794C38.7227 45.0819 37.4615 57.7256 35.9384 58.2333C34.4153 58.741 32.2534 58.8392 31.5983 58.6918C30.9432 58.5444 31.5983 61.7381 31.5983 61.7381H43.0136C43.0136 61.7381 43.9636 58.0367 44.3239 56.1369" fill="#DC1915"/>
</svg>
