<svg width="45" height="46" viewBox="0 0 45 46" fill="none" xmlns="http://www.w3.org/2000/svg">
<g clip-path="url(#clip0_4004_996)">
<path fill-rule="evenodd" clip-rule="evenodd" d="M22.5 0.459961C34.9181 0.459961 45 10.5419 45 22.96C45 35.378 34.9181 45.46 22.5 45.46C10.0819 45.46 0 35.378 0 22.96C0 10.5419 10.0819 0.459961 22.5 0.459961ZM22.5 8.89746C18.6809 8.89746 18.202 8.91363 16.702 8.9821C15.2053 9.05039 14.183 9.28813 13.2884 9.63574C12.3637 9.99513 11.5795 10.476 10.7977 11.2578C10.0159 12.0396 9.53508 12.8238 9.17569 13.7485C8.82809 14.643 8.59043 15.6652 8.52205 17.162C8.45367 18.6619 8.4375 19.1409 8.4375 22.96C8.4375 26.7791 8.45367 27.258 8.52205 28.7579C8.59043 30.2547 8.82809 31.277 9.17569 32.1714C9.53508 33.0961 10.0159 33.8804 10.7977 34.6622C11.5795 35.444 12.3637 35.9249 13.2884 36.2843C14.183 36.6318 15.2053 36.8695 16.702 36.9378C18.202 37.0063 18.6809 37.0225 22.5 37.0225C26.3191 37.0225 26.798 37.0063 28.298 36.9378C29.7947 36.8695 30.817 36.6318 31.7115 36.2843C32.6362 35.9249 33.4204 35.444 34.2023 34.6622C34.9841 33.8804 35.4649 33.0961 35.8243 32.1714C36.1718 31.277 36.4096 30.2547 36.4779 28.7579C36.5463 27.258 36.5625 26.7791 36.5625 22.96C36.5625 19.1409 36.5463 18.6619 36.4779 17.162C36.4096 15.6652 36.1718 14.643 35.8243 13.7485C35.4649 12.8238 34.9841 12.0396 34.2023 11.2578C33.4204 10.476 32.6362 9.99513 31.7115 9.63574C30.817 9.28813 29.7947 9.05039 28.298 8.9821C26.798 8.91363 26.3191 8.89746 22.5 8.89746ZM22.5 11.4313C26.2549 11.4313 26.6996 11.4456 28.1825 11.5133C29.5536 11.5758 30.2981 11.8049 30.7936 11.9975C31.4501 12.2525 31.9185 12.5573 32.4105 13.0494C32.9027 13.5414 33.2075 14.01 33.4625 14.6663C33.6551 15.1619 33.8842 15.9064 33.9467 17.2775C34.0144 18.7604 34.0287 19.2051 34.0287 22.96C34.0287 26.7148 34.0144 27.1595 33.9467 28.6424C33.8842 30.0135 33.6551 30.7581 33.4625 31.2536C33.2075 31.91 32.9027 32.3785 32.4105 32.8705C31.9185 33.3627 31.4501 33.6674 30.7936 33.9225C30.2981 34.115 29.5536 34.3442 28.1825 34.4067C26.6999 34.4743 26.2551 34.4887 22.5 34.4887C18.7449 34.4887 18.3002 34.4743 16.8175 34.4067C15.4464 34.3442 14.7019 34.115 14.2064 33.9225C13.5499 33.6674 13.0815 33.3627 12.5894 32.8705C12.0973 32.3785 11.7925 31.91 11.5375 31.2536C11.3449 30.7581 11.1158 30.0135 11.0532 28.6424C10.9855 27.1595 10.9713 26.7148 10.9713 22.96C10.9713 19.2051 10.9855 18.7604 11.0532 17.2775C11.1158 15.9064 11.3449 15.1619 11.5375 14.6663C11.7925 14.01 12.0973 13.5414 12.5894 13.0494C13.0815 12.5573 13.5499 12.2525 14.2064 11.9975C14.7019 11.8049 15.4464 11.5758 16.8175 11.5133C18.3004 11.4456 18.7451 11.4313 22.5 11.4313ZM22.5 15.7387C18.5118 15.7387 15.2787 18.9717 15.2787 22.96C15.2787 26.9482 18.5118 30.1812 22.5 30.1812C26.4882 30.1812 29.7213 26.9482 29.7213 22.96C29.7213 18.9717 26.4882 15.7387 22.5 15.7387ZM22.5 27.6474C19.9112 27.6474 17.8125 25.5488 17.8125 22.96C17.8125 20.3711 19.9112 18.2725 22.5 18.2725C25.0888 18.2725 27.1875 20.3711 27.1875 22.96C27.1875 25.5488 25.0888 27.6474 22.5 27.6474ZM31.6942 15.4534C31.6942 16.3854 30.9386 17.1408 30.0066 17.1408C29.0747 17.1408 28.3192 16.3854 28.3192 15.4534C28.3192 14.5214 29.0747 13.7659 30.0066 13.7659C30.9386 13.7659 31.6942 14.5214 31.6942 15.4534Z" fill="#DC1915"/>
</g>
<defs>
<clipPath id="clip0_4004_996">
<rect width="45" height="45" fill="white" transform="translate(0 0.459961)"/>
</clipPath>
</defs>
</svg>
