<svg width="30" height="31" viewBox="0 0 30 31" fill="none" xmlns="http://www.w3.org/2000/svg">
<g clip-path="url(#clip0_4001_572)">
<path d="M24.0738 3.47497L15 0.466217L5.92625 3.47497C3.87625 4.15497 2.5 6.06122 2.5 8.22122V15.415C2.5 23.6237 11.2575 28.6362 13.9375 29.975L14.945 30.48L15.9925 30.06C18.6913 28.9725 27.5 24.7037 27.5 15.4137V8.21997C27.5 6.05997 26.1225 4.15497 24.0738 3.47497ZM16.25 15.1987V20.46H13.75V15.1987C12.6463 14.7162 11.875 13.6162 11.875 12.335C11.875 10.6087 13.2738 9.20997 15 9.20997C16.7263 9.20997 18.125 10.6087 18.125 12.335C18.125 13.6162 17.3538 14.7175 16.25 15.1987Z" fill="#F5F4F4"/>
</g>
<defs>
<clipPath id="clip0_4001_572">
<rect width="30" height="30" fill="white" transform="translate(0 0.459961)"/>
</clipPath>
</defs>
</svg>
