<svg width="201" height="202" viewBox="0 0 201 202" fill="none" xmlns="http://www.w3.org/2000/svg">
<g clip-path="url(#clip0_4004_1001)">
<path d="M92.2666 49.4957H74.8041L53.528 27.2234H70.9905L92.2666 49.4957Z" fill="#EC2227"/>
<path d="M97.4619 44.0508V25.7706L76.1919 3.50464V21.7785L97.4619 44.0508Z" fill="#EC2227"/>
<path d="M68.8364 6.60608H56.4907V19.5298H68.8364V6.60608Z" fill="#EC2227"/>
<path d="M110.019 49.4957H127.475L148.751 27.2234H131.289L110.019 49.4957Z" fill="#EC2227"/>
<path d="M104.817 44.0508V25.7706L126.093 3.50464V21.7785L104.817 44.0508Z" fill="#EC2227"/>
<path d="M133.443 19.5234H145.789V6.59971L133.443 6.59971V19.5234Z" fill="#EC2227"/>
<path d="M92.4092 53.3398L101.139 62.4783L109.869 53.3398L101.139 44.2014L92.4092 53.3398Z" fill="#EC2227"/>
<path d="M92.4109 9.59567L101.141 18.7341L109.87 9.59567L101.141 0.457215L92.4109 9.59567Z" fill="#EC2227"/>
<path d="M50.626 53.3424L59.3557 62.4808L68.0853 53.3424L59.3557 44.2039L50.626 53.3424Z" fill="#EC2227"/>
<path d="M151.66 53.3433L142.93 44.2048L134.201 53.3433L142.93 62.4817L151.66 53.3433Z" fill="#EC2227"/>
<path d="M109.868 97.0901L101.138 87.9517L92.4082 97.0901L101.138 106.229L109.868 97.0901Z" fill="#EC2227"/>
<path d="M92.2666 57.1892H74.8041L53.528 79.4615H70.9905L92.2666 57.1892Z" fill="#EC2227"/>
<path d="M97.4619 62.6342V80.9144L76.1919 103.18V84.9064L97.4619 62.6342Z" fill="#EC2227"/>
<path d="M68.8364 87.1614H56.4907V100.085H68.8364V87.1614Z" fill="#EC2227"/>
<path d="M110.019 57.1892H127.475L148.751 79.4615H131.289L110.019 57.1892Z" fill="#EC2227"/>
<path d="M104.817 62.6342V80.9144L126.093 103.18V84.9064L104.817 62.6342Z" fill="#EC2227"/>
<path d="M133.443 100.079H145.789V87.1551H133.443V100.079Z" fill="#EC2227"/>
<path d="M19.6891 195.339H19.4779C18.621 195.225 17.9754 194.48 17.9754 193.589V171.406C17.9754 170.667 17.378 170.035 16.666 170.035C15.954 170.035 15.3566 170.66 15.3566 171.406V179.813C15.3566 181.398 14.1438 182.693 12.6473 182.693H8.34507C7.3917 182.693 6.45038 182.971 5.63579 183.47V174.513C5.58752 172.214 3.89798 170.294 1.70159 170.041H1.30334C0.585294 170.041 -0.00604248 170.654 -0.00604248 171.406C-0.00604248 172.157 0.57926 172.776 1.30334 172.776H1.47833C2.3412 172.884 2.98684 173.623 3.01701 174.526V196.71C3.01701 197.487 3.57818 198.081 4.3264 198.081C5.07462 198.081 5.63579 197.468 5.63579 196.71V188.258C5.63579 186.698 6.84863 185.422 8.34507 185.422H12.6473C13.6007 185.422 14.53 185.144 15.3566 184.633V193.589C15.3566 195.946 17.0341 197.872 19.315 198.081H19.6891C20.4071 198.081 20.9985 197.468 20.9985 196.71C20.9985 195.952 20.4011 195.339 19.6891 195.339Z" fill="#231F20"/>
<path d="M35.5827 195.339H35.4741C34.9311 195.289 34.4906 194.79 34.4906 194.24V186.919C34.4363 186.13 34.1346 185.416 33.6096 184.866C33.6096 184.866 33.4226 184.67 33.2053 184.487C32.9398 184.254 32.5959 184.14 32.252 184.171C31.902 184.203 31.5882 184.374 31.3649 184.645C31.1417 184.917 31.0331 185.271 31.0572 185.631C31.0813 185.997 31.2503 186.338 31.5098 186.572L31.5701 186.616C31.6123 186.641 31.6485 186.679 31.6908 186.711C31.727 186.742 31.7692 186.774 31.8115 186.812C31.8718 186.913 31.8839 186.957 31.8839 186.957V191.075C31.8839 191.385 31.8477 191.72 31.7753 192.017C31.5279 193.135 30.8822 194.082 29.953 194.689C29.0358 195.289 27.9557 195.478 26.8937 195.219C25.8378 194.998 24.9327 194.328 24.3413 193.324C23.7621 192.402 23.5871 191.271 23.8405 190.153C24.0879 189.067 24.7154 188.113 25.5662 187.532L31.1357 183.837C32.3666 182.94 33.1329 181.43 33.1329 179.895C33.1329 177.274 31.1175 175.145 28.6376 175.145C27.4187 175.145 26.3145 175.631 25.4697 176.509C25.2102 176.743 25.0533 177.078 25.0413 177.444C25.0292 177.823 25.168 178.202 25.4335 178.48C25.9041 178.973 26.7187 178.992 27.2497 178.512L27.304 178.461C27.6359 178.082 28.0885 177.886 28.6376 177.886C29.6754 177.886 30.5202 178.79 30.5202 179.895C30.5202 180.565 30.2064 181.177 29.6814 181.531L24.1784 185.214C21.0769 187.292 20.208 191.404 22.1691 194.796C23.4241 196.88 25.4818 198.081 27.8109 198.081C29.5246 198.081 31.1719 197.379 32.3847 196.173C32.9881 197.228 34.0561 197.961 35.2991 198.081H35.5888C36.2948 198.081 36.8982 197.455 36.8982 196.71C36.8982 195.964 36.3008 195.339 35.5888 195.339H35.5827Z" fill="#231F20"/>
<path d="M51.7902 195.56V176.453C51.7178 175.695 51.1687 175.145 50.4808 175.145C49.7386 175.145 49.1714 175.732 49.1714 176.516V195.339H42.9865C42.359 195.339 41.9366 194.745 41.9366 194.196V178.967C41.8883 176.996 40.4462 175.353 38.5817 175.151H38.2317C37.4895 175.151 36.9223 175.739 36.9223 176.516C36.9223 177.293 37.4955 177.886 38.2317 177.886H38.3403C38.9015 177.937 39.3239 178.417 39.3239 178.986V194.196C39.3239 196.299 41.0013 198.081 42.9926 198.081H50.4868C51.5247 198.081 52.3695 198.984 52.3695 200.089C52.3695 200.828 52.9668 201.46 53.6788 201.46C54.3909 201.46 54.9882 200.86 54.9882 200.089C54.9882 197.979 53.6728 196.154 51.8023 195.56H51.7902Z" fill="#231F20"/>
<path d="M59.6707 170.035C58.9405 170.035 58.3613 170.635 58.3613 171.406V173.181C58.3613 173.92 58.9586 174.551 59.6707 174.551C60.3827 174.551 60.98 173.939 60.98 173.181V171.406C60.98 170.629 60.4189 170.035 59.6707 170.035Z" fill="#231F20"/>
<path d="M57.6191 175.151H57.2691C56.5631 175.151 55.9597 175.777 55.9597 176.516C55.9597 177.255 56.5571 177.886 57.2691 177.886H57.3777C57.9328 177.937 58.3613 178.442 58.3613 179.03V196.71C58.3613 197.449 58.9586 198.081 59.6707 198.081C60.3827 198.081 60.98 197.468 60.98 196.71V179.03C60.98 177.027 59.5379 175.353 57.6251 175.151H57.6191Z" fill="#231F20"/>
<path d="M71.3828 175.145C70.2363 175.145 69.1381 175.461 68.2088 176.061L64.9686 178.164C64.5401 178.404 63.9307 178.48 63.5385 178.335C62.8627 178.101 62.1446 178.505 61.9093 179.257L61.8912 179.32C61.7403 180.028 62.1265 180.735 62.8446 180.982C64.1479 181.297 65.1979 181.171 66.284 180.552L69.5303 178.404C70.1156 178.063 70.7552 177.88 71.3888 177.88C73.386 177.88 75.0092 179.56 75.0092 181.626V191.549C75.0092 193.64 73.386 195.339 71.3888 195.339C69.3915 195.339 67.7684 193.64 67.7684 191.549V182.624C67.7684 181.86 67.1951 181.253 66.459 181.253C65.7228 181.253 65.1918 181.866 65.1918 182.624V191.549C65.1918 195.15 67.9675 198.074 71.3828 198.074C74.798 198.074 77.6159 195.15 77.6159 191.549V181.626C77.6159 178.051 74.8222 175.145 71.3828 175.145Z" fill="#231F20"/>
<path d="M96.424 195.339H96.3154C95.7723 195.289 95.3318 194.79 95.3318 194.24V176.516C95.3318 175.764 94.7465 175.145 94.0225 175.145C93.2984 175.145 92.7131 175.732 92.7131 176.516V183.23C92.7131 184.323 91.8321 185.239 90.7942 185.239H87.3609C86.6971 185.239 86.0575 185.391 85.4782 185.668V178.967C85.43 176.996 83.9878 175.353 82.1233 175.151H81.357C80.6389 175.151 80.0476 175.764 80.0476 176.516C80.0476 177.267 80.645 177.886 81.357 177.886H81.882C82.425 177.937 82.8655 178.436 82.8655 178.986V196.71C82.8655 197.474 83.4387 198.081 84.1749 198.081C84.911 198.081 85.4843 197.455 85.4843 196.71V189.995C85.4843 188.884 86.329 187.987 87.3669 187.987H90.8003C91.4519 187.987 92.1036 187.829 92.7191 187.526V194.246C92.7191 196.23 94.1612 197.878 96.074 198.081H96.424C97.13 198.081 97.7334 197.455 97.7334 196.716C97.7334 195.977 97.136 195.345 96.424 195.345V195.339Z" fill="#231F20"/>
<path d="M113.561 195.339H113.452C112.909 195.289 112.469 194.79 112.469 194.24V186.919C112.414 186.13 112.113 185.416 111.588 184.866C111.588 184.866 111.401 184.67 111.183 184.487C110.918 184.247 110.58 184.14 110.23 184.171C109.88 184.203 109.566 184.374 109.343 184.645C108.884 185.207 108.951 186.092 109.494 186.578L109.554 186.622C109.596 186.648 109.633 186.685 109.669 186.717C109.711 186.749 109.747 186.787 109.789 186.818C109.85 186.919 109.862 186.963 109.862 186.963V191.082C109.862 191.391 109.826 191.732 109.753 192.023C109.506 193.141 108.86 194.088 107.931 194.695C107.014 195.295 105.934 195.484 104.872 195.225C103.816 195.004 102.911 194.335 102.319 193.33C101.74 192.408 101.565 191.278 101.818 190.16C102.066 189.073 102.693 188.119 103.544 187.538L109.114 183.843C110.345 182.946 111.111 181.436 111.111 179.901C111.111 177.28 109.096 175.151 106.616 175.151C105.397 175.151 104.292 175.638 103.448 176.516C103.188 176.749 103.037 177.084 103.019 177.451C103.007 177.83 103.146 178.209 103.411 178.487C103.882 178.979 104.697 178.992 105.228 178.518L105.276 178.468C105.608 178.089 106.06 177.893 106.609 177.893C107.647 177.893 108.492 178.796 108.492 179.901C108.492 180.571 108.178 181.184 107.653 181.537L102.15 185.22C99.0488 187.298 98.1799 191.41 100.141 194.802C101.396 196.887 103.454 198.087 105.783 198.087C107.496 198.087 109.144 197.386 110.363 196.179C110.966 197.24 112.034 197.967 113.277 198.087H113.567C114.273 198.087 114.876 197.462 114.876 196.716C114.876 195.971 114.279 195.345 113.567 195.345L113.561 195.339Z" fill="#231F20"/>
<path d="M126.516 175.145H125.689C123.601 175.145 121.562 175.998 120.102 177.482C118.563 178.998 117.718 181.007 117.718 183.142V194.189C117.718 194.872 117.175 195.333 116.668 195.333C115.926 195.333 115.317 195.945 115.317 196.703C115.317 197.461 115.92 198.074 116.668 198.074C118.653 198.074 120.337 196.299 120.337 194.189V183.142C120.337 181.765 120.886 180.445 121.888 179.434C122.871 178.442 124.253 177.88 125.689 177.88H126.492C127.107 177.905 127.572 178.398 127.572 179.023V196.703C127.572 197.443 128.169 198.074 128.881 198.074C129.593 198.074 130.19 197.461 130.19 196.703V179.023C130.19 176.92 128.513 175.139 126.522 175.139L126.516 175.145Z" fill="#231F20"/>
<path d="M141.414 182.428C140.092 182.428 138.843 182.851 137.793 183.641V179.03C137.793 176.926 136.098 175.145 134.089 175.145C133.346 175.145 132.779 175.732 132.779 176.516C132.779 177.299 133.364 177.886 134.089 177.886C134.674 177.886 135.181 178.423 135.181 179.03V190.558C135.181 191.341 135.742 191.928 136.49 191.928C137.238 191.928 137.799 191.315 137.799 190.558V188.953C137.799 186.862 139.423 185.163 141.42 185.163C143.417 185.163 145.04 186.862 145.04 188.953V191.556C145.04 193.646 143.417 195.345 141.42 195.345C140.774 195.345 140.165 195.175 139.592 194.84L136.587 192.831L136.261 192.636C135.006 192.004 133.829 191.878 132.785 192.257C132.459 192.37 132.188 192.604 132.031 192.914C131.868 193.236 131.838 193.608 131.934 193.899C132.013 194.265 132.242 194.581 132.562 194.771C132.876 194.954 133.25 194.998 133.618 194.865C134.052 194.682 134.722 194.802 135.223 195.156L138.228 197.165C139.217 197.758 140.328 198.074 141.426 198.074C144.865 198.074 147.659 195.15 147.659 191.549V188.947C147.659 185.346 144.865 182.422 141.426 182.422L141.414 182.428Z" fill="#231F20"/>
<path d="M165.297 195.339H165.188C164.645 195.289 164.204 194.79 164.204 194.24V176.516C164.204 175.764 163.619 175.145 162.895 175.145C162.171 175.145 161.586 175.732 161.586 176.516V183.23C161.586 184.323 160.705 185.239 159.667 185.239H156.227C155.564 185.239 154.924 185.391 154.345 185.668V178.967C154.296 176.996 152.854 175.353 150.99 175.151H150.224C149.505 175.151 148.914 175.764 148.914 176.516C148.914 177.267 149.512 177.886 150.224 177.886H150.748C151.292 177.937 151.732 178.436 151.732 178.986V196.71C151.732 197.474 152.305 198.081 153.041 198.081C153.778 198.081 154.351 197.455 154.351 196.71V189.995C154.351 188.884 155.196 187.987 156.233 187.987H159.673C160.324 187.987 160.976 187.829 161.592 187.526V194.246C161.592 196.23 163.034 197.878 164.947 198.081H165.297C166.003 198.081 166.606 197.455 166.606 196.716C166.606 195.977 166.009 195.345 165.297 195.345V195.339Z" fill="#231F20"/>
<path d="M180.406 175.145C179.386 175.145 178.04 175.72 177.624 177.356L173.412 195.118C173.322 195.333 173.231 195.333 173.207 195.339C173.074 195.326 172.978 195.301 172.978 195.061V178.967C172.93 176.996 171.488 175.353 169.623 175.151H169.273C168.525 175.151 167.964 175.739 167.964 176.516C167.964 177.293 168.537 177.886 169.273 177.886H169.382C169.937 177.937 170.341 178.404 170.365 178.985V195.105C170.365 196.741 171.62 198.074 173.159 198.074C174.179 198.074 175.524 197.499 175.941 195.863L180.146 178.082C180.225 177.931 180.285 177.886 180.358 177.88C180.49 177.893 180.587 177.918 180.587 178.158V196.703C180.587 197.468 181.16 198.074 181.896 198.074C182.632 198.074 183.206 197.461 183.206 196.703V178.114C183.206 176.478 181.951 175.139 180.406 175.139V175.145Z" fill="#231F20"/>
<path d="M192.86 174.197H194.888C196.468 174.197 197.989 173.553 199.196 172.328C199.648 171.772 199.636 170.919 199.166 170.433C198.9 170.155 198.538 170.01 198.176 170.022C197.838 170.035 197.53 170.18 197.313 170.439C196.631 171.109 195.793 171.462 194.888 171.462H192.86C191.955 171.462 191.122 171.109 190.434 170.439C190.211 170.18 189.909 170.035 189.572 170.022C189.197 170.01 188.847 170.155 188.582 170.433C188.111 170.926 188.099 171.772 188.594 172.372C189.765 173.547 191.279 174.191 192.86 174.191V174.197Z" fill="#231F20"/>
<path d="M198.2 175.145C197.18 175.145 195.835 175.72 195.419 177.356L191.207 195.118C191.116 195.333 191.026 195.333 191.002 195.339C190.869 195.326 190.772 195.301 190.772 195.061V178.967C190.724 176.996 189.282 175.353 187.417 175.151H187.067C186.319 175.151 185.758 175.739 185.758 176.516C185.758 177.293 186.331 177.886 187.067 177.886H187.176C187.731 177.937 188.135 178.404 188.16 178.985V195.105C188.16 196.741 189.415 198.074 190.953 198.074C191.973 198.074 193.319 197.499 193.735 195.863L197.941 178.082C198.019 177.931 198.08 177.886 198.152 177.88C198.285 177.893 198.381 177.918 198.381 178.158V196.703C198.381 197.468 198.955 198.074 199.691 198.074C200.427 198.074 201 197.461 201 196.703V178.114C201 176.478 199.745 175.139 198.2 175.139V175.145Z" fill="#231F20"/>
<path d="M51.3497 132.135H50.3541C47.7775 132.135 45.4182 133.108 43.5235 134.953C41.6952 136.772 40.6875 139.216 40.6875 141.825V155.69C40.6875 156.157 40.5126 156.612 40.2229 156.915C39.8669 157.25 39.4325 157.446 39.0161 157.446C38.2981 157.446 37.7067 158.059 37.7067 158.817C37.7067 159.575 38.2679 160.187 39.0161 160.187C40.1505 160.187 41.2547 159.707 42.0512 158.874C42.8719 158.015 43.3063 156.915 43.3063 155.696V141.831C43.3063 139.993 44.0304 138.263 45.3579 136.955C46.6914 135.597 48.4232 134.877 50.3601 134.877H51.3557C51.8022 134.877 52.2367 135.06 52.5444 135.382C52.9487 135.805 53.0272 136.292 53.0272 136.627V158.81C53.0272 159.562 53.6125 160.181 54.3365 160.181C55.0606 160.181 55.6459 159.594 55.6459 158.81V136.627C55.6459 135.439 55.1873 134.283 54.3909 133.449C53.5702 132.59 52.5203 132.135 51.3557 132.135H51.3497Z" fill="#231F20"/>
<path d="M72.2758 153.65V143.726C72.2758 140.151 69.482 137.246 66.0426 137.246C64.8961 137.246 63.7979 137.561 62.8687 138.162L59.6284 140.265C59.2 140.505 58.5905 140.581 58.1983 140.435C57.5225 140.202 56.8045 140.606 56.5631 141.358L56.545 141.421C56.3942 142.128 56.7803 142.836 57.4984 143.082C58.8017 143.398 59.8517 143.272 60.9378 142.653L64.1841 140.505C64.7694 140.164 65.409 139.981 66.0426 139.981C68.0399 139.981 69.663 141.661 69.663 143.726V153.65C69.663 155.741 68.0399 157.44 66.0426 157.44C64.0453 157.44 62.4222 155.741 62.4222 153.65V144.724C62.4222 143.96 61.8489 143.354 61.1128 143.354C60.3766 143.354 59.8456 143.966 59.8456 144.724V153.65C59.8456 157.25 62.6213 160.175 66.0366 160.175C69.4518 160.175 72.2697 157.25 72.2697 153.65H72.2758Z" fill="#231F20"/>
<path d="M84.199 159.271C84.4283 159.827 84.9111 160.175 85.4541 160.175C85.9972 160.175 86.5402 159.764 86.6971 159.196L91.8985 140.176C91.9226 140.12 91.983 139.981 92.1217 139.981C92.2303 139.981 92.345 140.038 92.345 140.17V156.334C92.345 158.318 93.7871 159.966 95.6999 160.168H96.0499C96.7559 160.168 97.3593 159.543 97.3593 158.804C97.3593 158.065 96.7619 157.433 96.0499 157.433H95.9413C95.3982 157.383 94.9577 156.884 94.9577 156.334V140.17C94.9577 138.553 93.6846 137.246 92.0976 137.246C90.8244 137.296 89.7624 138.117 89.3883 139.349L85.4541 153.82L81.4837 139.343C81.1277 138.067 80.0536 137.239 78.7503 137.239C77.2056 137.239 75.9505 138.553 75.9505 140.17V158.804C75.9505 159.568 76.5237 160.175 77.2599 160.175C77.996 160.175 78.5693 159.549 78.5693 158.804V140.17C78.5693 140.12 78.5693 139.981 78.7503 139.981C78.8227 139.981 78.9253 140.025 78.9555 140.132L84.1689 159.202L84.193 159.278L84.199 159.271Z" fill="#231F20"/>
<path d="M106.109 160.175C109.548 160.175 112.342 157.25 112.342 153.65V147.106C112.342 143.505 109.548 140.581 106.109 140.581C105.36 140.581 104.63 140.726 103.973 141.004C103.653 141.118 103.393 141.351 103.242 141.667C103.086 142.002 103.061 142.4 103.194 142.817C103.496 143.531 104.262 143.84 104.902 143.543C105.3 143.392 105.68 143.322 106.103 143.322C108.1 143.322 109.723 145.021 109.723 147.112V153.656C109.723 155.747 108.1 157.446 106.103 157.446C104.105 157.446 102.482 155.747 102.482 153.656V141.958C102.482 139.892 104.105 138.212 106.103 138.212H107.798C110.302 138.212 112.336 136.102 112.336 133.506C112.336 132.742 111.763 132.135 111.026 132.135C110.29 132.135 109.717 132.736 109.717 133.506C109.717 134.593 108.872 135.477 107.834 135.477H106.097C102.657 135.477 99.8634 138.383 99.8634 141.958V153.656C99.8634 157.257 102.657 160.181 106.097 160.181L106.109 160.175Z" fill="#231F20"/>
<path d="M128.917 157.44H128.809C128.266 157.389 127.825 156.89 127.825 156.341V149.02C127.771 148.23 127.469 147.516 126.944 146.967C126.944 146.967 126.757 146.771 126.54 146.588C125.991 146.095 125.17 146.165 124.693 146.746C124.47 147.017 124.362 147.371 124.386 147.731C124.41 148.098 124.579 148.439 124.838 148.672L124.899 148.723C124.941 148.754 124.977 148.786 125.019 148.818C125.056 148.849 125.098 148.881 125.14 148.919C125.2 149.02 125.212 149.064 125.212 149.064V153.182C125.212 153.492 125.176 153.833 125.104 154.124C124.856 155.242 124.211 156.189 123.282 156.795C122.364 157.396 121.284 157.585 120.222 157.326C119.166 157.105 118.261 156.435 117.67 155.431C117.091 154.509 116.916 153.378 117.169 152.26C117.416 151.174 118.044 150.22 118.895 149.639L124.464 145.944C125.695 145.047 126.461 143.537 126.461 142.002C126.461 139.381 124.446 137.252 121.966 137.252C120.747 137.252 119.643 137.738 118.798 138.616C118.539 138.85 118.382 139.185 118.37 139.551C118.358 139.93 118.497 140.309 118.762 140.587C119.233 141.08 120.047 141.092 120.572 140.619L120.627 140.568C120.958 140.189 121.411 139.993 121.96 139.993C122.998 139.993 123.843 140.897 123.843 142.002C123.843 142.672 123.529 143.284 123.004 143.638L117.501 147.321C114.399 149.399 113.531 153.511 115.492 156.903C116.747 158.987 118.804 160.187 121.133 160.187C122.847 160.187 124.494 159.486 125.707 158.28C126.311 159.335 127.379 160.067 128.622 160.187H128.911C129.617 160.187 130.221 159.562 130.221 158.817C130.221 158.071 129.623 157.446 128.911 157.446L128.917 157.44Z" fill="#231F20"/>
<path d="M132.502 139.981C133.057 140.038 133.485 140.543 133.485 141.13V149.323C133.485 150.466 134.088 151.085 134.613 151.635L134.77 151.793C135.319 152.279 136.146 152.21 136.617 151.635C137.075 151.073 137.009 150.188 136.466 149.702L136.327 149.582C136.098 149.386 136.098 149.367 136.098 149.317V141.686L137.86 140.505C138.445 140.164 139.085 139.981 139.718 139.981C141.715 139.981 143.339 141.68 143.339 143.771V147.497C143.339 147.946 143.146 148.319 142.79 148.527C141.414 149.456 137.944 151.749 137.244 152.197L137.081 152.298C134.831 153.801 133.491 156.303 133.491 158.981V165.651C133.491 166.39 134.088 167.022 134.8 167.022C135.512 167.022 136.11 166.409 136.11 165.651V158.981C136.11 157.244 137.015 155.576 138.475 154.623L138.542 154.578C138.729 154.452 139.483 153.953 140.279 153.435C141.631 152.544 143.387 151.401 144.177 150.858C145.312 150.138 145.957 148.912 145.957 147.504V143.777C145.957 142.836 145.758 141.888 145.36 140.941C144.31 138.698 142.102 137.252 139.724 137.252C138.705 137.252 137.667 137.536 136.713 138.073H136.653L135.434 138.894C134.843 137.991 133.865 137.378 132.755 137.258H132.405C131.699 137.258 131.096 137.884 131.096 138.623C131.096 139.362 131.693 139.993 132.405 139.993H132.514L132.502 139.981Z" fill="#231F20"/>
<path d="M149.427 162.19C149.427 161.078 150.29 160.181 151.352 160.181H161.205C162.243 160.181 163.088 161.084 163.088 162.19C163.088 162.929 163.685 163.561 164.397 163.561C165.11 163.561 165.707 162.96 165.707 162.19C165.707 160.042 164.391 158.21 162.521 157.655V141.13C162.521 140.094 162.135 139.122 161.435 138.389C160.735 137.656 159.806 137.252 158.816 137.252H158.032C155.871 137.252 153.928 138.048 152.396 139.551C150.869 141.105 150.061 143.076 150.061 145.249V154.263C150.061 155.892 151.123 157.193 152.589 157.364C152.951 157.402 153.301 157.288 153.572 157.048C153.838 156.814 154.001 156.48 154.037 156.113C154.115 155.381 153.597 154.717 152.885 154.635C152.794 154.623 152.673 154.61 152.673 154.269V145.255C152.673 143.878 153.222 142.558 154.224 141.547C155.22 140.543 156.571 139.993 158.026 139.993H158.81C159.112 139.993 159.371 140.107 159.582 140.328C159.775 140.53 159.902 140.852 159.902 141.137V157.446H151.358C148.854 157.446 146.82 159.575 146.82 162.196C146.82 162.935 147.418 163.567 148.13 163.567C148.842 163.567 149.439 162.967 149.439 162.196L149.427 162.19Z" fill="#231F20"/>
</g>
<defs>
<clipPath id="clip0_4004_1001">
<rect width="201" height="201" fill="white" transform="translate(0 0.459961)"/>
</clipPath>
</defs>
</svg>
