<svg width="173" height="49" viewBox="0 0 173 49" fill="none" xmlns="http://www.w3.org/2000/svg">
<g clip-path="url(#clip0_4004_353)">
<path d="M19.97 22.46H11.6L1.39 12.26H9.77L19.97 22.46Z" fill="#E1251B"/>
<path d="M22.46 19.97V11.6L12.26 1.39001V9.77001L22.46 19.97Z" fill="#E1251B"/>
<path d="M8.73 2.80994H2.81V8.72994H8.73V2.80994Z" fill="#E1251B"/>
<path d="M28.49 22.46H36.86L47.06 12.26H38.69L28.49 22.46Z" fill="#E1251B"/>
<path d="M25.99 19.97V11.6L36.19 1.39001V9.77001L25.99 19.97Z" fill="#E1251B"/>
<path d="M39.72 8.73999H45.64V2.81999L39.72 2.81999V8.73999Z" fill="#E1251B"/>
<path d="M20.0439 24.2236L24.23 28.4097L28.4161 24.2236L24.23 20.0375L20.0439 24.2236Z" fill="#E1251B"/>
<path d="M20.0435 4.18405L24.2296 8.37012L28.4157 4.18405L24.2296 -0.00202707L20.0435 4.18405Z" fill="#E1251B"/>
<path d="M-0.00565221 24.224L4.18042 28.41L8.36649 24.224L4.18042 20.0379L-0.00565221 24.224Z" fill="#E1251B"/>
<path d="M48.4565 24.2268L44.2704 20.0408L40.0843 24.2268L44.2704 28.4129L48.4565 24.2268Z" fill="#E1251B"/>
<path d="M28.4157 44.2668L24.2296 40.0807L20.0435 44.2668L24.2296 48.4528L28.4157 44.2668Z" fill="#E1251B"/>
<path d="M19.97 25.99H11.6L1.39 36.19H9.77L19.97 25.99Z" fill="#E1251B"/>
<path d="M22.46 28.49V36.86L12.26 47.06V38.69L22.46 28.49Z" fill="#E1251B"/>
<path d="M8.73 39.72H2.81V45.64H8.73V39.72Z" fill="#E1251B"/>
<path d="M28.49 25.99H36.86L47.06 36.19H38.69L28.49 25.99Z" fill="#E1251B"/>
<path d="M25.99 28.49V36.86L36.19 47.06V38.69L25.99 28.49Z" fill="#E1251B"/>
<path d="M39.72 45.64H45.64V39.72H39.72V45.64Z" fill="#E1251B"/>
<path d="M68.47 40.73C68.47 40.97 68.28 41.14 68.06 41.14H67.84C66.74 41.04 65.9 40.14 65.9 39.01V33.37C65.4 33.85 64.73 34.16 63.99 34.16H61.5C60.45 34.16 59.59 35.02 59.59 36.07V40.73C59.59 40.97 59.4 41.14 59.18 41.14C58.94 41.14 58.77 40.97 58.77 40.73V28.49C58.75 27.82 58.24 27.25 57.55 27.18H57.43C57.19 27.18 57.02 26.99 57.02 26.77C57.02 26.55 57.19 26.36 57.43 26.36H57.62C58.72 26.48 59.56 27.39 59.58 28.49V34.13C60.06 33.65 60.75 33.34 61.49 33.34H63.98C65.03 33.34 65.89 32.48 65.89 31.4V26.76C65.89 26.54 66.08 26.35 66.3 26.35C66.52 26.35 66.71 26.54 66.71 26.76V39C66.71 39.69 67.24 40.24 67.91 40.31H68.05C68.27 40.31 68.46 40.5 68.46 40.72L68.47 40.73Z" fill="#222222"/>
<path d="M68.06 41.49H67.84C66.52 41.38 65.55 40.31 65.55 39.01V34.07C65.07 34.35 64.53 34.51 63.99 34.51H61.5C60.64 34.51 59.94 35.21 59.94 36.07V40.73C59.94 41.15 59.6 41.48 59.19 41.48C58.78 41.48 58.44 41.16 58.44 40.73V28.49C58.42 27.99 58.05 27.58 57.55 27.52H57.45C57.03 27.52 56.69 27.18 56.69 26.77C56.69 26.36 57.03 26.02 57.45 26.02H57.68C58.95 26.16 59.92 27.22 59.95 28.49V33.43C60.42 33.15 60.96 33 61.51 33H64C64.86 33 65.56 32.29 65.56 31.41V26.77C65.56 26.36 65.91 26.02 66.32 26.02C66.73 26.02 67.07 26.37 67.07 26.77V39.01C67.07 39.5 67.44 39.91 67.94 39.98H68.06C68.47 39.98 68.81 40.33 68.81 40.73C68.81 41.13 68.47 41.48 68.06 41.48V41.49ZM66.26 32.56V39.02C66.26 39.95 66.96 40.72 67.88 40.8H68.06C68.06 40.8 68.12 40.8 68.12 40.74C68.12 40.72 68.08 40.68 68.06 40.68H67.88C67.02 40.59 66.37 39.87 66.37 39.02V26.78C66.37 26.78 66.33 26.72 66.31 26.72C66.29 26.72 66.25 26.76 66.25 26.78V31.42C66.25 32.68 65.24 33.71 63.99 33.71H61.5C60.88 33.71 60.27 33.96 59.83 34.4L59.24 34.99V28.51C59.22 27.6 58.52 26.84 57.61 26.73H57.44C57.38 26.73 57.38 26.79 57.38 26.79C57.38 26.79 57.38 26.85 57.44 26.85H57.6C58.46 26.94 59.1 27.63 59.13 28.5V40.75C59.13 40.75 59.14 40.81 59.19 40.81C59.19 40.81 59.25 40.81 59.25 40.75V36.09C59.25 34.84 60.26 33.83 61.51 33.83H64C64.61 33.83 65.2 33.58 65.67 33.14L66.26 32.58V32.56Z" fill="#222222"/>
<path d="M77.64 40.7301C77.64 40.9501 77.45 41.1401 77.23 41.1401H77.06C76.29 41.0701 75.67 40.5201 75.48 39.8001C74.83 40.6401 73.81 41.1401 72.73 41.1401C71.56 41.1401 70.46 40.5901 69.77 39.4901C68.81 37.9101 69.1 35.7801 70.82 34.6801L74 32.6501C74.41 32.3901 74.65 31.9301 74.65 31.4501C74.65 30.6401 74 29.9901 73.22 29.9901C72.81 29.9901 72.45 30.1301 72.19 30.4201C72.02 30.5601 71.76 30.5601 71.62 30.4201C71.45 30.2501 71.45 29.9901 71.62 29.8501C72.05 29.4201 72.6 29.1801 73.22 29.1801C74.46 29.1801 75.47 30.1801 75.47 31.4501C75.47 32.1901 75.09 32.9101 74.47 33.3401L71.27 35.3701C70.1 36.1401 69.64 37.8101 70.46 39.0501C70.84 39.6701 71.44 40.1001 72.16 40.2501C73.59 40.5801 75.05 39.6801 75.39 38.2201C75.44 38.0301 75.46 37.8101 75.46 37.6201V35.3501C75.46 35.2301 75.39 35.1101 75.32 35.0201C75.27 35.0001 75.2 34.9201 75.13 34.8801C74.96 34.7401 74.94 34.4701 75.08 34.3101C75.22 34.1401 75.49 34.1201 75.65 34.2601C75.77 34.3601 75.87 34.4501 75.87 34.4501C76.11 34.6901 76.25 35.0001 76.28 35.3601V39.3801C76.28 39.8601 76.66 40.2901 77.16 40.3401H77.26C77.48 40.3401 77.67 40.5301 77.67 40.7501L77.64 40.7301Z" fill="#222222"/>
<path d="M77.24 41.4901H77.07C76.35 41.4201 75.73 41.0201 75.39 40.4401C74.69 41.1101 73.74 41.4901 72.75 41.4901C71.41 41.4901 70.22 40.8301 69.49 39.6801C68.36 37.8101 68.86 35.5401 70.65 34.4001L73.83 32.3701C74.13 32.1701 74.31 31.8401 74.31 31.4701C74.31 30.8601 73.82 30.3601 73.22 30.3601C72.9 30.3601 72.64 30.4701 72.45 30.6801L72.42 30.7101C72.12 30.9601 71.64 30.9601 71.37 30.6901C71.22 30.5401 71.14 30.3301 71.14 30.1201C71.14 29.9201 71.24 29.7401 71.39 29.6101C71.88 29.1201 72.51 28.8601 73.22 28.8601C74.65 28.8601 75.82 30.0401 75.82 31.4801C75.82 32.3301 75.38 33.1601 74.67 33.6601L71.46 35.7001C70.97 36.0201 70.6 36.5501 70.46 37.1501C70.31 37.7701 70.42 38.3901 70.75 38.9001C71.09 39.4501 71.61 39.8201 72.22 39.9401C73.53 40.2401 74.76 39.4001 75.04 38.1701C75.08 38.0101 75.1 37.8201 75.1 37.6501V35.3801C75.1 35.3801 75.1 35.3601 75.06 35.3001C75.04 35.2801 75.01 35.2601 74.99 35.2501C74.97 35.2301 74.94 35.2101 74.92 35.2001L74.89 35.1701C74.74 35.0401 74.64 34.8501 74.63 34.6501C74.61 34.4501 74.68 34.2501 74.81 34.1001C75.07 33.8001 75.57 33.7601 75.87 34.0101C76 34.1101 76.1 34.2201 76.1 34.2201C76.4 34.5201 76.58 34.9101 76.61 35.3501V39.3901C76.61 39.7001 76.87 39.9701 77.18 40.0001H77.24C77.65 40.0001 77.99 40.3401 77.99 40.7501C77.99 41.1601 77.64 41.5001 77.24 41.5001V41.4901ZM75.65 39.0301L75.83 39.7101C75.99 40.3001 76.5 40.7301 77.1 40.7901H77.23C77.23 40.7901 77.29 40.7501 77.29 40.7301C77.29 40.7101 77.25 40.6701 77.23 40.6701H77.13C76.42 40.6001 75.9 40.0301 75.9 39.3701V35.3501C75.88 35.1001 75.78 34.8701 75.6 34.6901C75.6 34.6901 75.51 34.6101 75.41 34.5201L75.37 34.5001C75.37 34.5001 75.33 34.5001 75.32 34.5201C75.31 34.5301 75.31 34.5501 75.31 34.5601C75.31 34.5701 75.31 34.5901 75.32 34.6001C75.35 34.6201 75.39 34.6501 75.42 34.6801C75.44 34.6901 75.45 34.7101 75.46 34.7201L75.53 34.7601L75.56 34.8201C75.7 35.0101 75.77 35.1901 75.77 35.3601V37.6301C75.77 37.8601 75.74 38.1001 75.69 38.3101C75.38 39.6801 74.13 40.6801 72.73 40.6801C72.5 40.6801 72.27 40.6501 72.05 40.6001C71.26 40.4401 70.57 39.9601 70.14 39.2501C69.71 38.5901 69.57 37.7701 69.76 36.9701C69.94 36.2001 70.42 35.5201 71.06 35.1001L74.27 33.0701C74.79 32.7101 75.11 32.1001 75.11 31.4801C75.11 30.4001 74.28 29.5601 73.21 29.5601C72.69 29.5601 72.23 29.7601 71.85 30.1301L71.83 30.1601C71.83 30.1601 71.83 30.1901 71.85 30.2101C71.9 30.2101 71.92 30.2101 71.94 30.2001C72.26 29.8601 72.7 29.6801 73.2 29.6801C74.18 29.6801 74.98 30.4901 74.98 31.4901C74.98 32.1001 74.68 32.6501 74.18 32.9801L71 35.0101C69.33 36.0801 69.27 38.0401 70.06 39.3401C70.65 40.2801 71.63 40.8201 72.73 40.8201C73.7 40.8201 74.62 40.3701 75.2 39.6201L75.63 39.0601L75.65 39.0301Z" fill="#222222"/>
<path d="M86.25 40.37C87.3 40.56 88.09 41.47 88.09 42.59C88.09 42.81 87.92 43 87.68 43C87.46 43 87.27 42.81 87.27 42.59C87.27 41.78 86.62 41.13 85.84 41.13H81.51C80.58 41.13 79.74 40.32 79.74 39.34V30.95C79.74 30.45 79.36 30.04 78.86 29.99H78.76C78.52 29.99 78.35 29.8 78.35 29.58C78.35 29.34 78.52 29.17 78.76 29.17H78.93C79.84 29.27 80.53 30.03 80.56 30.94V39.33C80.56 39.83 80.97 40.31 81.52 40.31H85.44V29.58C85.44 29.34 85.61 29.17 85.85 29.17C86.07 29.17 86.23 29.34 86.26 29.58V40.36L86.25 40.37Z" fill="#222222"/>
<path d="M87.68 43.3501C87.27 43.3501 86.93 43.0001 86.93 42.5901C86.93 41.9801 86.44 41.4801 85.84 41.4801H81.51C80.36 41.4801 79.39 40.5001 79.39 39.3401V30.9501C79.39 30.6301 79.15 30.3701 78.82 30.3401H78.76C78.34 30.3401 78.01 30.0101 78.01 29.5901C78.01 29.1701 78.33 28.8401 78.76 28.8401H78.96C80.04 28.9601 80.87 29.8601 80.9 30.9501V39.3501C80.9 39.6601 81.14 39.9801 81.51 39.9801H85.08V29.5901C85.08 29.1601 85.4 28.8401 85.83 28.8401C86.22 28.8401 86.54 29.1401 86.58 29.5601V40.1001C87.66 40.4301 88.42 41.4301 88.42 42.6001C88.42 43.0201 88.09 43.3601 87.67 43.3601L87.68 43.3501ZM78.76 29.5301C78.76 29.5301 78.7 29.5401 78.7 29.5901C78.7 29.5901 78.7 29.6501 78.76 29.6501H78.86C79.58 29.7201 80.09 30.2801 80.09 30.9501V39.3401C80.09 40.1101 80.75 40.7801 81.51 40.7801H85.84C86.82 40.7801 87.62 41.5901 87.62 42.5901C87.62 42.6101 87.66 42.6501 87.68 42.6501C87.74 42.6501 87.74 42.6001 87.74 42.5901C87.74 41.6601 87.09 40.8701 86.19 40.7101L85.9 40.6601V29.5901C85.9 29.5901 85.9 29.5301 85.84 29.5301C85.79 29.5301 85.78 29.5401 85.78 29.5901V40.6701H81.51C80.8 40.6701 80.21 40.0601 80.21 39.3401V30.9501C80.19 30.2301 79.63 29.6101 78.91 29.5301H78.76Z" fill="#222222"/>
<path d="M91.56 30.98V40.73C91.56 40.95 91.39 41.14 91.15 41.14C90.93 41.14 90.74 40.95 90.74 40.73V30.98C90.74 30.48 90.36 30.05 89.86 30H89.76C89.54 30 89.35 29.81 89.35 29.59C89.35 29.37 89.54 29.18 89.76 29.18H89.93C90.86 29.28 91.56 30.04 91.56 30.97V30.98ZM91.56 26.77V27.75C91.56 27.97 91.39 28.16 91.15 28.16C90.93 28.16 90.74 27.97 90.74 27.75V26.77C90.74 26.53 90.93 26.36 91.15 26.36C91.39 26.36 91.56 26.53 91.56 26.77Z" fill="#222222"/>
<path d="M91.15 41.49C90.74 41.49 90.4 41.14 90.4 40.74V30.99C90.4 30.67 90.15 30.39 89.83 30.36H89.77C89.36 30.36 89.01 30.02 89.01 29.61C89.01 29.2 89.36 28.86 89.77 28.86H89.97C91.08 28.98 91.91 29.9 91.91 31V40.75C91.91 41.17 91.57 41.5 91.15 41.5V41.49ZM89.76 29.54C89.76 29.54 89.7 29.58 89.7 29.6C89.7 29.62 89.74 29.66 89.76 29.66H89.86C90.57 29.73 91.09 30.31 91.09 30.99V40.74C91.09 40.74 91.13 40.8 91.15 40.8C91.21 40.8 91.21 40.74 91.21 40.74V30.99C91.21 30.25 90.65 29.63 89.91 29.55H89.76V29.54ZM91.15 28.51C90.74 28.51 90.4 28.16 90.4 27.76V26.78C90.4 26.36 90.73 26.03 91.15 26.03C91.57 26.03 91.91 26.35 91.91 26.78V27.76C91.91 28.18 91.57 28.51 91.15 28.51ZM91.15 26.72C91.15 26.72 91.09 26.72 91.09 26.78V27.76C91.09 27.76 91.13 27.82 91.15 27.82C91.21 27.82 91.21 27.76 91.21 27.76V26.78C91.21 26.78 91.2 26.72 91.15 26.72Z" fill="#222222"/>
<path d="M101.17 32.4101V37.8801C101.17 39.6701 99.71 41.1301 97.92 41.1301C96.13 41.1301 94.69 39.6701 94.69 37.8801V32.9601C94.69 32.7401 94.86 32.5501 95.07 32.5501C95.31 32.5501 95.48 32.7401 95.48 32.9601V37.8801C95.48 39.2201 96.58 40.3201 97.92 40.3201C99.26 40.3201 100.36 39.2201 100.36 37.8801V32.4101C100.36 31.0701 99.26 30.0001 97.92 30.0001C97.49 30.0001 97.06 30.1201 96.68 30.3301L94.79 31.5301C94.22 31.8401 93.69 31.8601 93.07 31.7201C92.85 31.6501 92.74 31.4301 92.78 31.2201C92.85 31.0001 93.07 30.8601 93.28 30.9301C93.61 31.0501 94.07 30.9801 94.38 30.8101L96.27 29.6401C96.77 29.3301 97.35 29.1901 97.92 29.1901C99.71 29.1901 101.17 30.6501 101.17 32.4201V32.4101Z" fill="#222222"/>
<path d="M97.91 41.4901C95.94 41.4901 94.33 39.8801 94.33 37.8901V32.9701C94.33 32.5501 94.66 32.2101 95.06 32.2101C95.48 32.2101 95.82 32.5401 95.82 32.9701V37.8901C95.82 39.0401 96.76 39.9801 97.91 39.9801C99.06 39.9801 100 39.0401 100 37.8901V32.4201C100 31.2801 99.06 30.3501 97.91 30.3501C97.55 30.3501 97.17 30.4501 96.84 30.6401L94.97 31.8301C94.33 32.1801 93.75 32.2401 92.98 32.0701C92.57 31.9301 92.34 31.5401 92.43 31.1501V31.1101C92.57 30.7101 93 30.4801 93.38 30.6001C93.62 30.6801 93.96 30.6301 94.2 30.5001L96.07 29.3401C96.61 29.0101 97.24 28.8301 97.9 28.8301C99.88 28.8301 101.5 30.4301 101.5 32.4101V37.8801C101.5 39.8601 99.89 41.4801 97.9 41.4801L97.91 41.4901ZM95.07 32.9101C95.07 32.9101 95.04 32.9401 95.04 32.9701V37.8901C95.04 39.4901 96.33 40.7901 97.92 40.7901C99.51 40.7901 100.82 39.4901 100.82 37.8901V32.4201C100.82 30.8301 99.52 29.5401 97.92 29.5401C97.39 29.5401 96.88 29.6801 96.45 29.9401L94.56 31.1101C94.12 31.3501 93.56 31.4101 93.16 31.2601C93.16 31.2601 93.13 31.2801 93.11 31.3101C93.11 31.3501 93.13 31.3801 93.17 31.3901C93.68 31.5001 94.15 31.4701 94.61 31.2201L96.48 30.0401C96.94 29.7801 97.43 29.6501 97.91 29.6501C99.45 29.6501 100.7 30.8901 100.7 32.4101V37.8801C100.7 39.4201 99.45 40.6701 97.91 40.6701C96.37 40.6701 95.12 39.4201 95.12 37.8801V32.9601C95.12 32.9601 95.12 32.9001 95.06 32.9001L95.07 32.9101Z" fill="#222222"/>
<path d="M112.78 40.73C112.78 40.95 112.59 41.14 112.37 41.14H112.2C111.27 41.04 110.57 40.28 110.57 39.37V35.04C110.16 35.35 109.66 35.57 109.11 35.57H107.13C106.34 35.57 105.7 36.22 105.7 37.03V40.74C105.7 40.96 105.51 41.15 105.29 41.15C105.05 41.15 104.88 40.96 104.88 40.74V30.96C104.88 30.48 104.5 30.05 104 30H103.67C103.45 30 103.26 29.81 103.26 29.59C103.26 29.35 103.45 29.18 103.67 29.18H104.08C104.99 29.28 105.68 30.04 105.71 30.95V35.28C106.09 34.95 106.59 34.75 107.14 34.75H109.12C109.91 34.75 110.58 34.08 110.58 33.29V29.58C110.58 29.34 110.75 29.17 110.99 29.17C111.21 29.17 111.4 29.34 111.4 29.58V39.36C111.4 39.84 111.78 40.27 112.28 40.32H112.38C112.6 40.32 112.79 40.51 112.79 40.73H112.78Z" fill="#222222"/>
<path d="M112.38 41.4901H112.18C111.07 41.3701 110.24 40.4701 110.24 39.3701V35.6601C109.88 35.8301 109.51 35.9101 109.13 35.9101H107.15C106.55 35.9101 106.06 36.4101 106.06 37.0201V40.7301C106.06 41.1401 105.71 41.4801 105.31 41.4801C104.91 41.4801 104.56 41.1501 104.56 40.7301V30.9501C104.56 30.6401 104.3 30.3701 103.99 30.3401H103.69C103.28 30.3401 102.93 30.0001 102.93 29.5901C102.93 29.1801 103.27 28.8401 103.69 28.8401H104.13C105.21 28.9601 106.04 29.8601 106.07 30.9501V34.6501C106.4 34.4901 106.77 34.4101 107.16 34.4101H109.14C109.74 34.4101 110.25 33.9001 110.25 33.3001V29.5901C110.25 29.1601 110.57 28.8401 111 28.8401C111.43 28.8401 111.76 29.1801 111.76 29.5901V39.3701C111.76 39.6801 112.02 39.9501 112.33 39.9801H112.39C112.8 39.9801 113.14 40.3201 113.14 40.7301C113.14 41.1401 112.79 41.4801 112.39 41.4801L112.38 41.4901ZM112.23 40.7901H112.38C112.38 40.7901 112.44 40.7501 112.44 40.7301C112.44 40.7101 112.4 40.6701 112.38 40.6701H112.28C111.57 40.6001 111.05 40.0301 111.05 39.3701V29.5901C111.05 29.5301 110.99 29.5301 110.99 29.5301C110.94 29.5301 110.93 29.5401 110.93 29.5901V33.3001C110.93 34.2801 110.1 35.1101 109.12 35.1101H107.14C106.69 35.1101 106.26 35.2701 105.93 35.5501L105.35 36.0601V30.9601C105.33 30.2401 104.77 29.6201 104.05 29.5401H103.66C103.66 29.5401 103.6 29.5401 103.6 29.6001C103.6 29.6201 103.64 29.6601 103.66 29.6601H103.99C104.7 29.7301 105.22 30.3001 105.22 30.9601V40.7401C105.22 40.7401 105.22 40.8001 105.28 40.8001C105.3 40.8001 105.34 40.7601 105.34 40.7401V37.0301C105.34 36.0301 106.14 35.2201 107.12 35.2201H109.1C109.64 35.2201 110.08 34.9701 110.35 34.7701L110.91 34.3401V39.3701C110.91 40.1001 111.47 40.7101 112.21 40.7901H112.23Z" fill="#222222"/>
<path d="M122.68 40.7301C122.68 40.9501 122.49 41.1401 122.27 41.1401H122.1C121.33 41.0701 120.71 40.5201 120.52 39.8001C119.87 40.6401 118.85 41.1401 117.77 41.1401C116.6 41.1401 115.5 40.5901 114.81 39.4901C113.85 37.9101 114.14 35.7801 115.86 34.6801L119.04 32.6501C119.45 32.3901 119.69 31.9301 119.69 31.4501C119.69 30.6401 119.04 29.9901 118.26 29.9901C117.85 29.9901 117.49 30.1301 117.23 30.4201C117.06 30.5601 116.8 30.5601 116.66 30.4201C116.49 30.2501 116.49 29.9901 116.66 29.8501C117.09 29.4201 117.64 29.1801 118.26 29.1801C119.5 29.1801 120.51 30.1801 120.51 31.4501C120.51 32.1901 120.13 32.9101 119.51 33.3401L116.31 35.3701C115.14 36.1401 114.68 37.8101 115.5 39.0501C115.88 39.6701 116.48 40.1001 117.2 40.2501C118.63 40.5801 120.09 39.6801 120.43 38.2201C120.48 38.0301 120.5 37.8101 120.5 37.6201V35.3501C120.5 35.2301 120.43 35.1101 120.36 35.0201C120.31 35.0001 120.24 34.9201 120.17 34.8801C120 34.7401 119.98 34.4701 120.12 34.3101C120.26 34.1401 120.53 34.1201 120.69 34.2601C120.81 34.3601 120.91 34.4501 120.91 34.4501C121.15 34.6901 121.29 35.0001 121.32 35.3601V39.3801C121.32 39.8601 121.7 40.2901 122.2 40.3401H122.3C122.52 40.3401 122.71 40.5301 122.71 40.7501L122.68 40.7301Z" fill="#222222"/>
<path d="M122.27 41.4901H122.1C121.38 41.4201 120.76 41.0201 120.42 40.4401C119.72 41.1101 118.77 41.4901 117.78 41.4901C116.43 41.4901 115.25 40.8301 114.52 39.6801C113.39 37.8101 113.89 35.5401 115.68 34.4001L118.86 32.3701C119.16 32.1701 119.34 31.8401 119.34 31.4701C119.34 30.8601 118.85 30.3601 118.25 30.3601C117.93 30.3601 117.67 30.4701 117.48 30.6801L117.45 30.7101C117.15 30.9601 116.67 30.9601 116.4 30.6901C116.25 30.5401 116.17 30.3301 116.17 30.1201C116.17 29.9201 116.27 29.7401 116.42 29.6101C116.91 29.1201 117.54 28.8601 118.25 28.8601C119.68 28.8601 120.85 30.0401 120.85 31.4801C120.85 32.3301 120.41 33.1601 119.7 33.6601L116.49 35.7001C116 36.0201 115.63 36.5501 115.49 37.1501C115.34 37.7701 115.45 38.3901 115.78 38.9001C116.12 39.4501 116.64 39.8201 117.25 39.9401C118.56 40.2401 119.79 39.4001 120.07 38.1701C120.11 38.0101 120.13 37.8201 120.13 37.6501V35.3801C120.13 35.3801 120.13 35.3601 120.09 35.3001C120.07 35.2801 120.04 35.2601 120.02 35.2501C120 35.2301 119.98 35.2101 119.95 35.2001L119.92 35.1701C119.61 34.9001 119.57 34.4101 119.83 34.1001C120.09 33.8001 120.59 33.7601 120.9 34.0101C121.03 34.1101 121.13 34.2201 121.13 34.2201C121.43 34.5201 121.61 34.9101 121.64 35.3501V39.3901C121.64 39.7001 121.9 39.9701 122.21 40.0001H122.27C122.68 40.0001 123.03 40.3401 123.03 40.7501C123.03 41.1601 122.68 41.5001 122.27 41.5001V41.4901ZM120.68 39.0301L120.86 39.7101C121.02 40.3001 121.53 40.7301 122.13 40.7901H122.26C122.26 40.7901 122.32 40.7501 122.32 40.7301C122.32 40.7101 122.28 40.6701 122.26 40.6701H122.16C121.45 40.6001 120.93 40.0301 120.93 39.3701V35.3501C120.91 35.1001 120.81 34.8701 120.63 34.6901C120.63 34.6901 120.54 34.6101 120.44 34.5201L120.4 34.5001C120.4 34.5001 120.36 34.5001 120.35 34.5201C120.34 34.5401 120.34 34.5701 120.35 34.6001C120.38 34.6201 120.42 34.6501 120.45 34.6801C120.47 34.6901 120.48 34.7101 120.49 34.7201L120.56 34.7601L120.59 34.8201C120.73 35.0101 120.8 35.1901 120.8 35.3601V37.6301C120.8 37.8601 120.77 38.1001 120.72 38.3101C120.41 39.6801 119.16 40.6801 117.76 40.6801C117.53 40.6801 117.3 40.6501 117.08 40.6001C116.29 40.4401 115.6 39.9601 115.17 39.2501C114.74 38.5901 114.6 37.7701 114.79 36.9701C114.97 36.2001 115.45 35.5201 116.09 35.1001L119.3 33.0701C119.82 32.7101 120.14 32.1001 120.14 31.4801C120.14 30.4001 119.31 29.5601 118.24 29.5601C117.72 29.5601 117.26 29.7601 116.88 30.1301L116.86 30.1601C116.86 30.1601 116.86 30.1901 116.88 30.2101C116.93 30.2101 116.95 30.2101 116.97 30.2001C117.29 29.8601 117.73 29.6801 118.23 29.6801C119.21 29.6801 120.01 30.4901 120.01 31.4901C120.01 32.1001 119.71 32.6501 119.21 32.9801L116.03 35.0101C114.36 36.0801 114.3 38.0401 115.09 39.3401C115.68 40.2801 116.66 40.8201 117.76 40.8201C118.73 40.8201 119.65 40.3701 120.23 39.6201L120.66 39.0601L120.68 39.0301Z" fill="#222222"/>
<path d="M131.52 40.7301C131.52 40.9501 131.35 41.1401 131.11 41.1401C130.89 41.1401 130.7 40.9501 130.7 40.7301V30.9801C130.7 30.4501 130.29 30.0201 129.74 30.0001H129.26C128.35 30.0001 127.47 30.3301 126.82 30.9601C126.17 31.5801 125.82 32.3901 125.82 33.2601V39.3601C125.82 40.2901 125.03 41.1501 124.05 41.1501C123.81 41.1501 123.62 40.9601 123.62 40.7401C123.62 40.5201 123.81 40.3301 124.05 40.3301C124.55 40.3301 125.01 39.9001 125.01 39.3501V33.2501C125.01 32.1701 125.46 31.1501 126.28 30.3801C127.07 29.6101 128.14 29.1801 129.27 29.1801H129.75C130.68 29.1801 131.52 29.9901 131.52 30.9701V40.7201V40.7301Z" fill="#222222"/>
<path d="M131.12 41.4901C130.71 41.4901 130.36 41.1401 130.36 40.7401V30.9901C130.36 30.6501 130.09 30.3701 129.74 30.3601H129.28C128.45 30.3601 127.65 30.6701 127.08 31.2201C126.5 31.7801 126.18 32.5001 126.18 33.2601V39.3601C126.18 40.5201 125.21 41.5001 124.06 41.5001C123.63 41.5001 123.28 41.1601 123.28 40.7501C123.28 40.3401 123.63 40.0001 124.06 40.0001C124.35 40.0001 124.67 39.7501 124.67 39.3701V33.2701C124.67 32.0901 125.16 30.9801 126.05 30.1501C126.89 29.3301 128.07 28.8601 129.28 28.8601H129.76C130.91 28.8601 131.88 29.8401 131.88 31.0001V40.7501C131.88 41.1701 131.54 41.5001 131.13 41.5001L131.12 41.4901ZM129.28 29.6501H129.76C130.51 29.6801 131.06 30.2501 131.06 30.9801V40.7301C131.06 40.7301 131.1 40.7901 131.12 40.7901C131.18 40.7901 131.18 40.7301 131.18 40.7301V30.9801C131.18 30.2101 130.52 29.5401 129.76 29.5401H129.28C128.25 29.5401 127.25 29.9401 126.53 30.6401C125.78 31.3501 125.37 32.2701 125.37 33.2601V39.3601C125.37 40.0801 124.77 40.6901 124.07 40.6901C124.02 40.6901 123.99 40.7301 123.99 40.7501C123.99 40.7701 124.02 40.8101 124.07 40.8101C124.83 40.8101 125.49 40.1401 125.49 39.3701V33.2701C125.49 32.3201 125.88 31.4101 126.6 30.7201C127.3 30.0501 128.27 29.6701 129.28 29.6701V29.6501Z" fill="#222222"/>
<path d="M141.61 36.45V37.88C141.61 39.67 140.15 41.13 138.36 41.13C137.76 41.13 137.19 40.96 136.69 40.68L134.97 39.58C134.59 39.32 134.09 39.25 133.73 39.39C133.51 39.46 133.28 39.32 133.23 39.1C133.16 38.88 133.28 38.67 133.49 38.6C134.04 38.41 134.64 38.5 135.24 38.79L135.41 38.89L137.13 39.99C137.51 40.21 137.92 40.32 138.37 40.32C139.71 40.32 140.81 39.22 140.81 37.88V36.45C140.81 35.09 139.71 34.01 138.37 34.01C137.03 34.01 135.93 35.09 135.93 36.45V37.33C135.93 37.57 135.74 37.74 135.52 37.74C135.28 37.74 135.11 37.57 135.11 37.33V30.97C135.11 30.44 134.66 29.99 134.13 29.99C133.89 29.99 133.72 29.8 133.72 29.58C133.72 29.34 133.89 29.17 134.13 29.17C135.09 29.17 135.92 29.98 135.92 30.96V34.28C136.52 33.61 137.38 33.18 138.36 33.18C140.15 33.18 141.61 34.64 141.61 36.43V36.45Z" fill="#222222"/>
<path d="M138.36 41.4901C137.72 41.4901 137.09 41.3201 136.51 40.9901L134.77 39.8801C134.48 39.6801 134.09 39.6201 133.84 39.7201C133.75 39.7501 133.67 39.7601 133.59 39.7601C133.25 39.7601 132.95 39.5301 132.87 39.2001C132.75 38.8101 132.96 38.4101 133.36 38.2701C133.95 38.0601 134.65 38.1301 135.37 38.4801L135.56 38.5901L137.3 39.7001C137.63 39.8901 137.98 39.9801 138.36 39.9801C139.51 39.9801 140.45 39.0401 140.45 37.8901V36.4601C140.45 35.3101 139.51 34.3701 138.36 34.3701C137.21 34.3701 136.27 35.3101 136.27 36.4601V37.3401C136.27 37.7601 135.93 38.1001 135.52 38.1001C135.11 38.1001 134.77 37.7801 134.77 37.3401V30.9801C134.77 30.6501 134.47 30.3501 134.14 30.3501C133.72 30.3501 133.39 30.0201 133.39 29.5901C133.39 29.1601 133.71 28.8401 134.14 28.8401C135.3 28.8401 136.28 29.8201 136.28 30.9801V33.5201C136.89 33.0901 137.61 32.8501 138.37 32.8501C140.35 32.8501 141.97 34.4601 141.97 36.4501V37.8801C141.97 39.8601 140.36 41.4801 138.37 41.4801L138.36 41.4901ZM134.13 38.9801C134.49 38.9801 134.86 39.1001 135.17 39.3101L136.88 40.4001C137.33 40.6601 137.85 40.8001 138.37 40.8001C139.97 40.8001 141.27 39.5001 141.27 37.9001V36.4701C141.27 34.8701 139.97 33.5701 138.37 33.5701C137.53 33.5701 136.76 33.9201 136.19 34.5501L135.58 35.2301V30.9901C135.58 30.2201 134.91 29.5501 134.14 29.5501C134.09 29.5501 134.08 29.5601 134.08 29.6101C134.08 29.6101 134.08 29.6701 134.14 29.6701C134.86 29.6701 135.47 30.2801 135.47 31.0001V37.3601C135.47 37.3601 135.48 37.4201 135.53 37.4201C135.53 37.4201 135.59 37.4201 135.59 37.3601V36.4801C135.59 34.9401 136.84 33.6901 138.38 33.6901C139.92 33.6901 141.17 34.9401 141.17 36.4801V37.9101C141.17 39.4501 139.92 40.7001 138.38 40.7001C137.88 40.7001 137.42 40.5801 136.97 40.3201L135.08 39.1201C134.56 38.8701 134.05 38.8101 133.62 38.9601C133.6 38.9601 133.56 38.9801 133.57 39.0201V39.0501C133.57 39.0501 133.61 39.0801 133.63 39.0801C133.78 39.0201 133.96 38.9901 134.15 38.9901L134.13 38.9801Z" fill="#222222"/>
<path d="M152.56 40.73C152.56 40.95 152.37 41.14 152.15 41.14H151.98C151.05 41.04 150.35 40.28 150.35 39.37V35.04C149.94 35.35 149.44 35.57 148.89 35.57H146.91C146.12 35.57 145.48 36.22 145.48 37.03V40.74C145.48 40.96 145.29 41.15 145.07 41.15C144.83 41.15 144.66 40.96 144.66 40.74V30.96C144.66 30.48 144.28 30.05 143.78 30H143.45C143.23 30 143.04 29.81 143.04 29.59C143.04 29.35 143.23 29.18 143.45 29.18H143.86C144.77 29.28 145.46 30.04 145.49 30.95V35.28C145.87 34.95 146.37 34.75 146.92 34.75H148.9C149.69 34.75 150.36 34.08 150.36 33.29V29.58C150.36 29.34 150.53 29.17 150.77 29.17C150.99 29.17 151.18 29.34 151.18 29.58V39.36C151.18 39.84 151.56 40.27 152.06 40.32H152.16C152.38 40.32 152.57 40.51 152.57 40.73H152.56Z" fill="#222222"/>
<path d="M152.15 41.4901H151.95C150.84 41.3701 150.01 40.4701 150.01 39.3701V35.6601C149.65 35.8301 149.28 35.9101 148.9 35.9101H146.92C146.32 35.9101 145.83 36.4101 145.83 37.0201V40.7301C145.83 41.1401 145.48 41.4801 145.08 41.4801C144.68 41.4801 144.32 41.1401 144.32 40.7301V30.9501C144.32 30.6401 144.06 30.3701 143.75 30.3401H143.45C143.04 30.3401 142.7 30.0001 142.7 29.5901C142.7 29.1801 143.04 28.8401 143.45 28.8401H143.89C144.97 28.9601 145.8 29.8601 145.83 30.9501V34.6501C146.16 34.4901 146.53 34.4101 146.92 34.4101H148.9C149.5 34.4101 150.01 33.9001 150.01 33.3001V29.5901C150.01 29.1601 150.33 28.8401 150.76 28.8401C151.19 28.8401 151.51 29.1801 151.51 29.5901V39.3701C151.51 39.6801 151.77 39.9501 152.08 39.9801H152.14C152.55 39.9801 152.89 40.3201 152.89 40.7301C152.89 41.1401 152.54 41.4801 152.14 41.4801L152.15 41.4901ZM152 40.7901H152.15C152.15 40.7901 152.21 40.7501 152.21 40.7301C152.21 40.7101 152.17 40.6701 152.15 40.6701H152.05C151.34 40.6001 150.82 40.0301 150.82 39.3701V29.5901C150.82 29.5301 150.76 29.5301 150.76 29.5301C150.71 29.5301 150.7 29.5401 150.7 29.5901V33.3001C150.7 34.2801 149.87 35.1101 148.89 35.1101H146.91C146.46 35.1101 146.03 35.2701 145.7 35.5501L145.12 36.0601V30.9601C145.1 30.2401 144.54 29.6201 143.82 29.5401H143.43C143.43 29.5401 143.37 29.5401 143.37 29.6001C143.37 29.6201 143.41 29.6601 143.43 29.6601H143.76C144.47 29.7301 144.99 30.3001 144.99 30.9601V40.7401C144.99 40.7401 144.99 40.8001 145.05 40.8001C145.07 40.8001 145.11 40.7601 145.11 40.7401V37.0301C145.11 36.0301 145.91 35.2201 146.89 35.2201H148.87C149.41 35.2201 149.85 34.9701 150.12 34.7701L150.68 34.3401V39.3701C150.68 40.1001 151.24 40.7101 151.98 40.7901H152Z" fill="#222222"/>
<path d="M161.33 30.5002C161.33 30.2402 161.19 30.0202 160.88 30.0002C160.57 30.0002 160.45 30.2402 160.4 30.3302L157.96 40.1802C157.77 40.9002 157.15 41.1402 156.69 41.1402C156 41.1402 155.42 40.5702 155.42 39.8502V30.9602C155.4 30.4602 155.04 30.0502 154.54 30.0002H154.44C154.2 30.0002 154.03 29.8102 154.03 29.5902C154.03 29.3502 154.2 29.1802 154.44 29.1802H154.61C155.52 29.2802 156.21 30.0402 156.24 30.9502V39.8202C156.24 40.0802 156.38 40.3002 156.69 40.3202C157 40.3202 157.12 40.0802 157.17 39.9602L159.61 30.1302C159.8 29.4102 160.42 29.1702 160.88 29.1702C161.57 29.1702 162.15 29.7402 162.15 30.4602V40.7202C162.15 40.9602 161.96 41.1302 161.74 41.1302C161.5 41.1302 161.33 40.9402 161.33 40.7202V30.4902V30.5002Z" fill="#222222"/>
<path d="M161.74 41.4901C161.32 41.4901 160.99 41.1601 160.99 40.7401V30.5101C160.99 30.3801 160.94 30.3601 160.86 30.3601C160.82 30.3601 160.78 30.3801 160.74 30.4701L158.31 40.2801C158.07 41.1801 157.29 41.5001 156.7 41.5001C155.81 41.5001 155.08 40.7601 155.08 39.8601V30.9701C155.06 30.6501 154.83 30.3901 154.51 30.3601H154.45C154.03 30.3601 153.69 30.0301 153.69 29.6101C153.69 29.1901 154.01 28.8601 154.45 28.8601H154.65C155.73 28.9801 156.56 29.8801 156.59 30.9701V39.8501C156.59 39.9801 156.64 40.0001 156.72 40.0001C156.74 40.0001 156.79 40.0001 156.84 39.8801L159.27 30.0801C159.51 29.1801 160.28 28.8601 160.88 28.8601C161.77 28.8601 162.5 29.6001 162.5 30.5001V40.7601C162.5 41.1801 162.16 41.5101 161.75 41.5101L161.74 41.4901ZM160.88 29.6501C161.37 29.6901 161.68 30.0301 161.68 30.5001V40.7301C161.68 40.7301 161.68 40.7901 161.74 40.7901C161.74 40.7901 161.8 40.7901 161.8 40.7301V30.4701C161.8 29.9501 161.39 29.5301 160.88 29.5301C160.76 29.5301 160.13 29.5601 159.95 30.2301L157.5 40.0901C157.35 40.4601 157.06 40.6701 156.7 40.6701C156.21 40.6301 155.9 40.2901 155.9 39.8201V30.9501C155.88 30.2301 155.32 29.6101 154.6 29.5301H154.45C154.45 29.5301 154.39 29.5401 154.39 29.5901C154.39 29.5901 154.39 29.6501 154.45 29.6501H154.55C155.25 29.7101 155.75 30.2601 155.78 30.9401V39.8501C155.78 40.3701 156.19 40.7901 156.7 40.7901C156.82 40.7901 157.45 40.7601 157.63 40.0901L160.09 30.1701C160.27 29.8201 160.53 29.6401 160.88 29.6401V29.6501Z" fill="#222222"/>
<path d="M171.61 30.5C171.61 30.24 171.47 30.02 171.16 30C170.85 30 170.73 30.24 170.68 30.33L168.24 40.18C168.05 40.9 167.43 41.14 166.97 41.14C166.28 41.14 165.7 40.57 165.7 39.85V30.96C165.68 30.46 165.32 30.05 164.82 30H164.72C164.48 30 164.31 29.81 164.31 29.59C164.31 29.35 164.48 29.18 164.72 29.18H164.89C165.8 29.28 166.49 30.04 166.52 30.95V39.82C166.52 40.08 166.66 40.3 166.97 40.32C167.28 40.32 167.4 40.08 167.45 39.96L169.89 30.13C170.08 29.41 170.7 29.17 171.16 29.17C171.85 29.17 172.43 29.74 172.43 30.46V40.72C172.43 40.96 172.24 41.13 172.02 41.13C171.78 41.13 171.61 40.94 171.61 40.72V30.49V30.5ZM169.24 27.15C169.86 27.15 170.44 26.91 170.89 26.48C171.03 26.31 171.3 26.31 171.46 26.48C171.6 26.62 171.6 26.89 171.46 27.05C170.86 27.62 170.07 27.96 169.24 27.96H168.07C167.23 27.96 166.44 27.63 165.85 27.05C165.71 26.88 165.71 26.62 165.85 26.48C166.02 26.31 166.28 26.31 166.42 26.48C166.87 26.91 167.45 27.15 168.07 27.15H169.24Z" fill="#222222"/>
<path d="M172.01 41.4901C171.59 41.4901 171.26 41.1601 171.26 40.7401V30.5101C171.26 30.3801 171.21 30.3601 171.13 30.3601C171.09 30.3601 171.05 30.3801 171.01 30.4701L168.58 40.2801C168.34 41.1801 167.56 41.5001 166.97 41.5001C166.08 41.5001 165.35 40.7601 165.35 39.8601V30.9701C165.33 30.6501 165.1 30.3901 164.78 30.3601H164.72C164.3 30.3601 163.96 30.0301 163.96 29.6101C163.96 29.1901 164.28 28.8601 164.72 28.8601H164.92C166 28.9801 166.83 29.8801 166.86 30.9701V39.8501C166.86 39.9801 166.91 40.0001 166.99 40.0001C167.01 40.0001 167.06 40.0001 167.11 39.8801L169.54 30.0801C169.78 29.1801 170.55 28.8601 171.15 28.8601C172.04 28.8601 172.77 29.6001 172.77 30.5001V40.7601C172.77 41.1801 172.43 41.5101 172.02 41.5101L172.01 41.4901ZM171.15 29.6501C171.64 29.6901 171.95 30.0301 171.95 30.5001V40.7301C171.95 40.7301 171.95 40.7901 172.01 40.7901C172.01 40.7901 172.07 40.7901 172.07 40.7301V30.4701C172.07 29.9501 171.66 29.5301 171.15 29.5301C171.03 29.5301 170.4 29.5601 170.22 30.2301L167.77 40.0901C167.62 40.4601 167.33 40.6701 166.97 40.6701C166.48 40.6301 166.17 40.2901 166.17 39.8201V30.9501C166.15 30.2301 165.59 29.6101 164.87 29.5301H164.72C164.72 29.5301 164.66 29.5401 164.66 29.5901C164.66 29.5901 164.66 29.6501 164.72 29.6501H164.82C165.52 29.7101 166.02 30.2601 166.05 30.9401V39.8501C166.05 40.3701 166.46 40.7901 166.97 40.7901C167.09 40.7901 167.72 40.7601 167.9 40.0901L170.36 30.1701C170.54 29.8201 170.8 29.6401 171.15 29.6401V29.6501ZM169.24 28.3101H168.07C167.16 28.3101 166.28 27.9501 165.61 27.3001C165.33 26.9701 165.33 26.5001 165.61 26.2301C165.9 25.9401 166.41 25.9401 166.68 26.2301C167.07 26.6001 167.56 26.7901 168.08 26.7901H169.25C169.77 26.7901 170.25 26.6001 170.65 26.2301C170.92 25.9401 171.43 25.9301 171.72 26.2301C171.99 26.5001 172 26.9701 171.74 27.2801C171.04 27.9501 170.17 28.3101 169.25 28.3101H169.24ZM166.14 26.7001C166.14 26.7001 166.11 26.7001 166.09 26.7201C166.09 26.7301 166.08 26.7901 166.11 26.8201C166.63 27.3201 167.34 27.6101 168.07 27.6101H169.24C169.97 27.6101 170.68 27.3201 171.22 26.8001C171.22 26.7901 171.22 26.7401 171.22 26.7201C171.2 26.7001 171.18 26.7001 171.17 26.7001L171.13 26.7301C170.6 27.2301 169.95 27.4901 169.24 27.4901H168.07C167.36 27.4901 166.71 27.2301 166.18 26.7301L166.15 26.7001C166.15 26.7001 166.14 26.7001 166.13 26.7001H166.14Z" fill="#222222"/>
<path d="M66.7 7.57995V19.82C66.7 20.06 66.53 20.23 66.29 20.23C66.07 20.23 65.88 20.06 65.88 19.82V7.57995C65.88 7.24995 65.76 6.90995 65.5 6.64995C65.26 6.40995 64.93 6.26995 64.57 6.26995H64C62.8 6.26995 61.7 6.69995 60.87 7.50995C60.03 8.29995 59.58 9.34995 59.58 10.45V18.1C59.58 18.67 59.36 19.2 58.96 19.61C58.55 20.02 58 20.23 57.45 20.23C57.21 20.23 57.04 20.06 57.04 19.82C57.04 19.6 57.21 19.41 57.45 19.41C57.78 19.41 58.12 19.27 58.38 19.03C58.62 18.79 58.76 18.46 58.76 18.1V10.45C58.76 9.10995 59.31 7.83995 60.29 6.90995C61.29 5.97995 62.59 5.44995 64 5.44995H64.57C65.14 5.44995 65.67 5.66995 66.08 6.06995C66.49 6.46995 66.7 7.02995 66.7 7.57995Z" fill="#222222"/>
<path d="M66.29 20.58C65.87 20.58 65.54 20.24 65.54 19.83V7.57999C65.54 7.39999 65.49 7.12999 65.26 6.88999C65.08 6.70999 64.83 6.60999 64.57 6.60999H64C62.88 6.60999 61.88 7.00999 61.11 7.74999C60.34 8.46999 59.93 9.42999 59.93 10.44V18.09C59.93 18.76 59.68 19.37 59.21 19.84C58.75 20.3 58.11 20.56 57.46 20.56C57.03 20.56 56.7 20.24 56.7 19.81C56.7 19.38 57.04 19.06 57.46 19.06C57.7 19.06 57.95 18.95 58.16 18.77C58.33 18.6 58.43 18.35 58.43 18.1V10.45C58.43 9.00998 59.01 7.65999 60.07 6.65999C61.17 5.63999 62.53 5.10999 64.02 5.10999H64.59C65.26 5.10999 65.87 5.35999 66.34 5.82999C66.8 6.28999 67.06 6.92999 67.06 7.57999V19.82C67.06 20.25 66.74 20.57 66.3 20.57L66.29 20.58ZM63.99 5.91999H64.56C65 5.91999 65.43 6.09999 65.74 6.39999C66.05 6.70999 66.22 7.12999 66.22 7.57999V19.82C66.22 19.88 66.28 19.88 66.28 19.88C66.33 19.88 66.34 19.87 66.34 19.82V7.57999C66.34 7.10999 66.15 6.64999 65.82 6.31999C65.48 5.97999 65.04 5.79999 64.56 5.79999H63.99C62.68 5.79999 61.48 6.26999 60.52 7.16999C59.61 8.03999 59.1 9.20998 59.1 10.45V18.1C59.1 18.54 58.92 18.97 58.62 19.28C58.27 19.6 57.86 19.76 57.44 19.76C57.38 19.76 57.38 19.82 57.38 19.82C57.38 19.87 57.39 19.88 57.44 19.88C57.91 19.88 58.37 19.69 58.7 19.36C59.04 19.02 59.22 18.58 59.22 18.1V10.45C59.22 9.23998 59.72 8.10999 60.62 7.25999C61.51 6.39999 62.71 5.91999 63.99 5.91999Z" fill="#222222"/>
<path d="M76.31 11.5V16.97C76.31 18.76 74.85 20.22 73.06 20.22C71.27 20.22 69.83 18.76 69.83 16.97V12.05C69.83 11.83 70 11.64 70.21 11.64C70.45 11.64 70.62 11.83 70.62 12.05V16.97C70.62 18.31 71.72 19.41 73.06 19.41C74.4 19.41 75.5 18.31 75.5 16.97V11.5C75.5 10.16 74.4 9.09003 73.06 9.09003C72.63 9.09003 72.2 9.21003 71.82 9.42003L69.93 10.62C69.36 10.93 68.83 10.95 68.21 10.81C67.99 10.74 67.88 10.52 67.92 10.31C67.99 10.09 68.21 9.95003 68.42 10.02C68.75 10.14 69.21 10.07 69.52 9.90003L71.41 8.73003C71.91 8.42003 72.49 8.28003 73.06 8.28003C74.85 8.28003 76.31 9.74003 76.31 11.51V11.5Z" fill="#222222"/>
<path d="M73.05 20.58C71.08 20.58 69.47 18.97 69.47 16.98V12.06C69.47 11.64 69.8 11.31 70.2 11.31C70.62 11.31 70.95 11.64 70.95 12.06V16.98C70.95 18.13 71.89 19.07 73.04 19.07C74.19 19.07 75.13 18.13 75.13 16.98V11.51C75.13 10.37 74.19 9.44004 73.04 9.44004C72.68 9.44004 72.3 9.54004 71.97 9.73004L70.1 10.92C69.46 11.27 68.88 11.33 68.11 11.16C67.7 11.02 67.47 10.63 67.56 10.24V10.2C67.7 9.80004 68.13 9.57004 68.51 9.69004C68.74 9.77004 69.09 9.72004 69.33 9.59004L71.2 8.43004C71.74 8.10004 72.37 7.92004 73.03 7.92004C75.01 7.92004 76.63 9.52004 76.63 11.5V16.97C76.63 18.95 75.02 20.57 73.03 20.57L73.05 20.58ZM70.21 12C70.21 12 70.18 12.03 70.18 12.06V16.98C70.18 18.58 71.47 19.88 73.06 19.88C74.65 19.88 75.96 18.58 75.96 16.98V11.51C75.96 9.92004 74.66 8.63004 73.06 8.63004C72.53 8.63004 72.02 8.77004 71.59 9.03004L69.7 10.2C69.26 10.44 68.7 10.5 68.3 10.35C68.3 10.35 68.27 10.37 68.25 10.4C68.25 10.44 68.27 10.47 68.31 10.48C68.83 10.59 69.29 10.56 69.75 10.31L71.62 9.13004C72.08 8.87004 72.57 8.74004 73.05 8.74004C74.59 8.74004 75.84 9.98004 75.84 11.5V16.97C75.84 18.51 74.59 19.76 73.05 19.76C71.51 19.76 70.26 18.51 70.26 16.97V12.05C70.26 12.05 70.26 11.99 70.2 11.99L70.21 12Z" fill="#222222"/>
<path d="M90.79 19.82C90.79 20.04 90.6 20.23 90.38 20.23H90.21C89.28 20.13 88.58 19.37 88.58 18.46V9.54002C88.58 9.28002 88.36 9.09002 88.1 9.09002C87.88 9.09002 87.72 9.23002 87.65 9.42002L84.64 19.94C84.59 20.11 84.42 20.23 84.26 20.23C84.07 20.23 83.93 20.11 83.85 19.94L80.84 9.42002C80.77 9.20002 80.58 9.09002 80.39 9.09002C80.15 9.09002 79.94 9.26002 79.94 9.54002V19.82C79.94 20.04 79.75 20.23 79.53 20.23C79.29 20.23 79.12 20.04 79.12 19.82V9.54002C79.12 8.87002 79.65 8.27002 80.39 8.27002C80.96 8.27002 81.47 8.60002 81.63 9.18002L84.26 18.34L86.87 9.18002C87.04 8.65002 87.52 8.30002 88.11 8.27002C88.83 8.27002 89.4 8.84002 89.4 9.54002V18.46C89.4 18.94 89.78 19.37 90.28 19.42H90.38C90.6 19.42 90.79 19.61 90.79 19.83V19.82Z" fill="#222222"/>
<path d="M90.38 20.58H90.18C89.07 20.46 88.24 19.56 88.24 18.46V9.54004C88.24 9.47004 88.17 9.43004 88.11 9.43004C88.03 9.43004 87.99 9.51004 87.98 9.54004L84.98 20.03C84.89 20.34 84.59 20.57 84.26 20.57C83.93 20.57 83.67 20.38 83.53 20.07V20.03L80.5 9.51004C80.48 9.45004 80.42 9.43004 80.38 9.43004C80.27 9.43004 80.27 9.51004 80.27 9.54004V19.82C80.27 20.23 79.92 20.57 79.52 20.57C79.12 20.57 78.77 20.24 78.77 19.82V9.54004C78.77 8.65004 79.49 7.92004 80.39 7.92004C81.14 7.92004 81.76 8.37004 81.97 9.08004L84.26 17.07L86.53 9.09004C86.75 8.41004 87.36 7.96004 88.09 7.93004C89.01 7.93004 89.74 8.65004 89.74 9.55004V18.47C89.74 18.78 90 19.05 90.31 19.08H90.37C90.78 19.08 91.13 19.42 91.13 19.83C91.13 20.24 90.78 20.58 90.37 20.58H90.38ZM90.23 19.88H90.38C90.38 19.88 90.44 19.84 90.44 19.82C90.44 19.8 90.4 19.76 90.38 19.76H90.28C89.57 19.69 89.05 19.12 89.05 18.46V9.54004C89.05 9.03004 88.63 8.62004 88.11 8.62004C87.68 8.64004 87.32 8.89004 87.2 9.29004L84.26 19.61L81.29 9.28004C81.17 8.88004 80.82 8.62004 80.38 8.62004C79.81 8.62004 79.46 9.09004 79.46 9.54004V19.82C79.46 19.82 79.46 19.88 79.52 19.88C79.54 19.88 79.58 19.84 79.58 19.82V9.54004C79.58 9.08004 79.93 8.74004 80.38 8.74004C80.73 8.74004 81.05 8.97004 81.16 9.31004L84.17 19.82C84.2 19.88 84.24 19.88 84.25 19.88C84.27 19.88 84.29 19.86 84.3 19.85L87.31 9.33004C87.45 8.96004 87.75 8.74004 88.1 8.74004C88.56 8.74004 88.93 9.09004 88.93 9.54004V18.46C88.93 19.19 89.49 19.8 90.23 19.88Z" fill="#222222"/>
<path d="M99.44 13.37V16.98C99.44 18.77 97.98 20.23 96.19 20.23C94.4 20.23 92.94 18.77 92.94 16.98V10.53C92.94 8.73996 94.4 7.29996 96.19 7.29996H97.19C97.98 7.29996 98.62 6.64996 98.62 5.86996C98.62 5.62996 98.81 5.45996 99.03 5.45996C99.25 5.45996 99.44 5.62996 99.44 5.86996C99.44 7.10996 98.44 8.11996 97.17 8.11996H96.19C94.85 8.11996 93.75 9.19996 93.75 10.53V16.98C93.75 18.32 94.85 19.42 96.19 19.42C97.53 19.42 98.63 18.32 98.63 16.98V13.37C98.63 12.03 97.53 10.93 96.19 10.93C95.9 10.93 95.64 10.98 95.38 11.07C95.16 11.17 94.93 11.07 94.83 10.85C94.76 10.63 94.85 10.4 95.07 10.32C95.43 10.18 95.81 10.1 96.19 10.1C97.98 10.1 99.44 11.56 99.44 13.35V13.37Z" fill="#222222"/>
<path d="M96.19 20.58C94.21 20.58 92.59 18.97 92.59 16.98V10.53C92.59 8.55998 94.2 6.94999 96.19 6.94999H97.19C97.79 6.94999 98.28 6.45999 98.28 5.85999C98.28 5.43999 98.62 5.10999 99.03 5.10999C99.44 5.10999 99.79 5.43999 99.79 5.85999C99.79 7.28999 98.61 8.45999 97.17 8.45999H96.19C95.04 8.45999 94.1 9.38999 94.1 10.53V16.98C94.1 18.13 95.04 19.07 96.19 19.07C97.34 19.07 98.28 18.13 98.28 16.98V13.37C98.28 12.22 97.34 11.28 96.19 11.28C95.95 11.28 95.73 11.32 95.5 11.4C95.42 11.44 95.32 11.46 95.21 11.46C94.91 11.46 94.64 11.28 94.51 11C94.44 10.78 94.44 10.58 94.52 10.4C94.6 10.21 94.76 10.07 94.96 9.99999C95.34 9.84999 95.76 9.76999 96.19 9.76999C98.17 9.76999 99.79 11.38 99.79 13.37V16.98C99.79 18.96 98.18 20.58 96.19 20.58ZM96.19 7.64999C94.59 7.64999 93.29 8.93998 93.29 10.53V16.98C93.29 18.58 94.59 19.88 96.19 19.88C97.79 19.88 99.09 18.58 99.09 16.98V13.37C99.09 11.77 97.79 10.47 96.19 10.47C95.85 10.47 95.51 10.53 95.2 10.66C95.15 10.68 95.15 10.72 95.16 10.75C95.16 10.75 95.18 10.76 95.21 10.76L95.26 10.74C95.56 10.63 95.87 10.58 96.19 10.58C97.73 10.58 98.98 11.83 98.98 13.37V16.98C98.98 18.52 97.73 19.77 96.19 19.77C94.65 19.77 93.4 18.52 93.4 16.98V10.53C93.4 9.00998 94.65 7.76999 96.19 7.76999H97.17C98.25 7.76999 99.09 6.93999 99.09 5.86999C99.09 5.80999 99.03 5.80999 99.03 5.80999C99.03 5.80999 98.97 5.80999 98.97 5.86999C98.97 6.84999 98.17 7.64999 97.19 7.64999H96.19Z" fill="#222222"/>
<path d="M109.77 19.8199C109.77 20.0399 109.58 20.2299 109.36 20.2299H109.19C108.42 20.1599 107.8 19.6099 107.61 18.8899C106.96 19.7299 105.94 20.2299 104.86 20.2299C103.69 20.2299 102.59 19.6799 101.9 18.5799C100.94 16.9999 101.23 14.8699 102.95 13.7699L106.13 11.7399C106.54 11.4799 106.78 11.0199 106.78 10.5399C106.78 9.7299 106.13 9.0799 105.35 9.0799C104.94 9.0799 104.58 9.2199 104.32 9.5099C104.15 9.6499 103.89 9.6499 103.75 9.5099C103.58 9.3399 103.58 9.0799 103.75 8.9399C104.18 8.5099 104.73 8.2699 105.35 8.2699C106.59 8.2699 107.6 9.2699 107.6 10.5399C107.6 11.2799 107.22 11.9999 106.6 12.4299L103.4 14.4599C102.23 15.2299 101.77 16.8999 102.59 18.1399C102.97 18.7599 103.57 19.1899 104.29 19.3399C105.72 19.6699 107.18 18.7699 107.52 17.3099C107.57 17.1199 107.59 16.8999 107.59 16.7099V14.4399C107.59 14.3199 107.52 14.1999 107.45 14.1099C107.4 14.0899 107.33 14.0099 107.26 13.9699C107.09 13.8299 107.07 13.5599 107.21 13.3999C107.35 13.2299 107.62 13.2099 107.78 13.3499C107.9 13.4499 108 13.5399 108 13.5399C108.24 13.7799 108.38 14.0899 108.41 14.4499V18.4699C108.41 18.9499 108.79 19.3799 109.29 19.4299H109.39C109.61 19.4299 109.8 19.6199 109.8 19.8399L109.77 19.8199Z" fill="#222222"/>
<path d="M109.36 20.58H109.19C108.47 20.51 107.85 20.11 107.51 19.53C106.81 20.2 105.86 20.58 104.87 20.58C103.53 20.58 102.34 19.92 101.61 18.77C100.48 16.9 100.98 14.63 102.77 13.49L105.95 11.46C106.25 11.26 106.43 10.93 106.43 10.56C106.43 9.94995 105.94 9.44995 105.34 9.44995C105.02 9.44995 104.76 9.55995 104.57 9.76995L104.54 9.79995C104.24 10.05 103.76 10.05 103.49 9.77995C103.34 9.62995 103.26 9.41995 103.26 9.20995C103.26 9.00995 103.36 8.82995 103.51 8.69995C103.99 8.20995 104.63 7.94995 105.34 7.94995C106.77 7.94995 107.94 9.12995 107.94 10.57C107.94 11.42 107.5 12.25 106.79 12.75L103.58 14.79C103.09 15.11 102.72 15.64 102.58 16.24C102.43 16.86 102.54 17.48 102.87 17.99C103.21 18.54 103.73 18.91 104.34 19.03C104.52 19.07 104.7 19.09 104.87 19.09C105.95 19.09 106.91 18.32 107.16 17.26C107.2 17.1 107.22 16.91 107.22 16.74V14.47C107.22 14.47 107.22 14.45 107.18 14.39C107.16 14.37 107.13 14.35 107.11 14.34C107.09 14.32 107.06 14.3 107.04 14.29L107.01 14.26C106.86 14.13 106.76 13.94 106.75 13.74C106.73 13.54 106.8 13.34 106.93 13.19C107.19 12.89 107.69 12.85 107.99 13.1C108.12 13.2 108.22 13.31 108.22 13.31C108.52 13.61 108.7 14 108.73 14.44V18.48C108.73 18.79 108.99 19.06 109.3 19.09H109.36C109.77 19.09 110.11 19.43 110.11 19.84C110.11 20.25 109.76 20.59 109.36 20.59V20.58ZM107.77 18.12L107.95 18.8C108.11 19.39 108.62 19.82 109.22 19.88H109.35C109.35 19.88 109.41 19.84 109.41 19.82C109.41 19.8 109.37 19.76 109.35 19.76H109.25C108.54 19.69 108.02 19.12 108.02 18.46V14.44C108 14.19 107.9 13.96 107.72 13.78C107.72 13.78 107.63 13.7 107.53 13.61L107.49 13.59C107.49 13.59 107.45 13.59 107.44 13.61C107.43 13.62 107.43 13.64 107.43 13.65C107.43 13.66 107.43 13.68 107.44 13.69C107.47 13.71 107.51 13.74 107.54 13.77C107.56 13.78 107.57 13.8 107.59 13.81L107.66 13.85L107.69 13.91C107.83 14.1 107.9 14.28 107.9 14.45V16.72C107.9 16.95 107.87 17.19 107.82 17.4C107.51 18.77 106.26 19.77 104.86 19.77C104.63 19.77 104.4 19.74 104.18 19.69C103.39 19.53 102.7 19.05 102.27 18.34C101.84 17.68 101.7 16.86 101.89 16.06C102.07 15.29 102.55 14.61 103.19 14.19L106.4 12.16C106.92 11.8 107.24 11.19 107.24 10.57C107.24 9.48995 106.41 8.64995 105.34 8.64995C104.82 8.64995 104.36 8.84995 103.98 9.21995L103.96 9.24995C103.96 9.24995 103.96 9.27995 103.98 9.29995C104.03 9.29995 104.05 9.29995 104.07 9.28995C104.39 8.94995 104.83 8.76995 105.33 8.76995C106.31 8.76995 107.11 9.57995 107.11 10.58C107.11 11.19 106.81 11.74 106.31 12.07L103.13 14.1C101.46 15.17 101.4 17.13 102.19 18.43C102.78 19.37 103.76 19.91 104.86 19.91C105.83 19.91 106.75 19.46 107.33 18.71L107.76 18.15L107.77 18.12Z" fill="#222222"/>
<path d="M118.85 11.5299V13.5899C118.85 14.2399 118.54 14.8099 117.99 15.1399C117.18 15.6699 114.71 17.1999 114.69 17.2199C113.73 17.8199 113.16 18.8499 113.16 19.9199V23.5999C113.16 23.8199 112.99 24.0099 112.75 24.0099C112.53 24.0099 112.34 23.8199 112.34 23.5999V19.9199C112.34 18.5599 113.06 17.2899 114.25 16.5299C114.27 16.5299 116.74 14.9799 117.55 14.4499C117.86 14.2799 118.03 13.9499 118.03 13.5899V11.5299C118.03 10.1899 116.93 9.0899 115.59 9.0899C115.16 9.0899 114.73 9.2099 114.35 9.4199L113.15 10.1899V14.5899C113.15 14.8299 113.32 14.9199 113.48 15.0699C113.64 15.2199 113.67 15.4799 113.53 15.6399C113.39 15.8099 113.12 15.8299 112.96 15.6899C112.65 15.3799 112.34 15.1199 112.34 14.5899V10.0699C112.34 9.5699 111.96 9.1399 111.46 9.0899H111.36C111.14 9.0899 110.95 8.8999 110.95 8.6799C110.95 8.4599 111.14 8.2699 111.36 8.2699H111.53C112.2 8.3399 112.75 8.7499 112.99 9.3199L113.92 8.7199H113.94C114.44 8.4299 115.02 8.2699 115.59 8.2699C116.88 8.2699 118 9.0399 118.53 10.1099C118.72 10.5399 118.84 11.0199 118.84 11.5199L118.85 11.5299Z" fill="#222222"/>
<path d="M112.76 24.3499C112.35 24.3499 112.01 23.9999 112.01 23.5999V19.9199C112.01 18.4399 112.78 17.0599 114.08 16.2299L114.17 16.1799C114.58 15.9299 116.64 14.6299 117.37 14.1599C117.58 14.0499 117.69 13.8399 117.69 13.5899V11.5299C117.69 10.3799 116.75 9.43994 115.6 9.43994C115.24 9.43994 114.86 9.53994 114.53 9.72994L113.51 10.3799V14.5899C113.51 14.5899 113.51 14.6299 113.64 14.7399L113.72 14.8099C114.03 15.0799 114.07 15.5599 113.81 15.8699C113.55 16.1699 113.04 16.2099 112.74 15.9599L112.65 15.8699C112.34 15.5699 112 15.2199 112 14.5899V10.0699C112 9.74994 111.75 9.46994 111.43 9.43994H111.37C110.96 9.43994 110.61 9.09994 110.61 8.68994C110.61 8.27994 110.96 7.93994 111.37 7.93994H111.57C112.21 8.00994 112.77 8.34994 113.12 8.84994L113.82 8.39994H113.86C114.41 8.09994 115.01 7.94994 115.6 7.94994C116.97 7.94994 118.25 8.74994 118.85 9.98994C119.08 10.5099 119.2 11.0299 119.2 11.5499V13.6099C119.2 14.3899 118.83 15.0599 118.17 15.4599C117.71 15.7599 116.69 16.3999 115.91 16.8899C115.45 17.1799 115.02 17.4499 114.92 17.5199L114.88 17.5499C114.04 18.0799 113.51 18.9999 113.51 19.9599V23.6399C113.51 24.0599 113.17 24.3899 112.75 24.3899L112.76 24.3499ZM114.45 16.7999C113.35 17.5099 112.7 18.6699 112.7 19.9099V23.5899C112.7 23.5899 112.74 23.6499 112.76 23.6499C112.82 23.6499 112.82 23.5899 112.82 23.5899V19.9099C112.82 18.7099 113.47 17.5699 114.51 16.9099C114.6 16.8499 114.83 16.7099 115.54 16.2599C116.32 15.7699 117.33 15.1399 117.8 14.8299C118.25 14.5599 118.5 14.0999 118.5 13.5699V11.5099C118.5 11.0899 118.41 10.6599 118.22 10.2399C117.74 9.24994 116.71 8.60994 115.6 8.60994C115.1 8.60994 114.59 8.74994 114.12 9.01994L114.03 9.06994L112.83 9.83994L112.67 9.45994C112.48 8.99994 112.04 8.67994 111.51 8.61994H111.36C111.36 8.61994 111.3 8.65994 111.3 8.67994C111.3 8.69994 111.34 8.73994 111.36 8.73994H111.46C112.17 8.80994 112.69 9.38994 112.69 10.0699V14.5899C112.69 14.9099 112.84 15.0799 113.14 15.3699L113.21 15.4399C113.21 15.4399 113.26 15.4299 113.27 15.4099C113.29 15.3899 113.28 15.3499 113.26 15.3299L113.19 15.2799C113.03 15.1499 112.8 14.9599 112.8 14.5899V9.99994L114.16 9.12994C114.62 8.86994 115.11 8.73994 115.59 8.73994C117.13 8.73994 118.38 9.98994 118.38 11.5299V13.5899C118.38 14.0899 118.13 14.5399 117.72 14.7599C115.48 16.2099 114.72 16.6699 114.44 16.8099L114.45 16.7999Z" fill="#222222"/>
<path d="M128.41 19.46C129.46 19.63 130.25 20.56 130.25 21.68C130.25 21.9 130.08 22.09 129.84 22.09C129.62 22.09 129.43 21.9 129.43 21.68C129.43 20.87 128.78 20.22 128 20.22H122.31C121.52 20.22 120.85 20.87 120.85 21.68C120.85 21.9 120.68 22.09 120.44 22.09C120.22 22.09 120.03 21.9 120.03 21.68C120.03 20.41 121.06 19.41 122.3 19.41H127.58V10.06C127.58 9.80003 127.46 9.53003 127.29 9.37003C127.1 9.18003 126.86 9.08003 126.6 9.08003H126.15C125.22 9.08003 124.36 9.41003 123.71 10.04C123.06 10.66 122.71 11.47 122.71 12.34V17.31C122.71 17.43 122.73 17.81 123.14 17.86C123.36 17.88 123.52 18.08 123.5 18.29C123.48 18.53 123.28 18.7 123.05 18.67C122.38 18.6 121.9 18.02 121.9 17.31V12.34C121.9 11.24 122.33 10.24 123.14 9.45003C123.95 8.68003 125 8.28003 126.15 8.28003H126.6C127.08 8.28003 127.53 8.47003 127.87 8.81003C128.21 9.15003 128.4 9.60003 128.4 10.08V19.48L128.41 19.46Z" fill="#222222"/>
<path d="M129.85 22.44C129.44 22.44 129.1 22.09 129.1 21.69C129.1 21.08 128.61 20.58 128.01 20.58H122.32C121.71 20.58 121.21 21.08 121.21 21.69C121.21 22.11 120.88 22.44 120.46 22.44C120.04 22.44 119.71 22.09 119.71 21.69C119.71 20.25 120.89 19.07 122.33 19.07H127.26V10.07C127.26 9.91004 127.19 9.73004 127.08 9.62004C126.96 9.50004 126.81 9.44004 126.63 9.44004H126.18C125.34 9.44004 124.56 9.75004 123.98 10.3C123.4 10.86 123.08 11.58 123.08 12.34V17.31C123.08 17.5 123.15 17.51 123.2 17.51C123.61 17.56 123.91 17.92 123.86 18.32C123.82 18.75 123.46 19.05 123.02 19.01C122.17 18.92 121.56 18.2 121.56 17.3V12.33C121.56 11.13 122.03 10.04 122.91 9.19004C123.79 8.36004 124.92 7.92004 126.17 7.92004H126.62C127.19 7.92004 127.73 8.14004 128.13 8.55004C128.53 8.95004 128.76 9.49004 128.76 10.06V19.18C129.84 19.49 130.6 20.5 130.6 21.68C130.6 22.1 130.26 22.43 129.84 22.43L129.85 22.44ZM122.32 19.88H128.01C128.99 19.88 129.79 20.69 129.79 21.69C129.79 21.71 129.83 21.75 129.85 21.75C129.91 21.75 129.91 21.69 129.91 21.69C129.91 20.74 129.26 19.95 128.36 19.81L128.07 19.76V10.07C128.07 9.69004 127.92 9.32004 127.65 9.05004C127.38 8.78004 127.01 8.63004 126.63 8.63004H126.18C125.11 8.63004 124.15 9.00004 123.41 9.71004C122.67 10.43 122.28 11.34 122.28 12.35V17.32C122.28 17.87 122.62 18.28 123.12 18.34C123.17 18.34 123.19 18.3 123.19 18.27C123.19 18.25 123.17 18.22 123.14 18.22C122.69 18.17 122.4 17.82 122.4 17.32V12.35C122.4 11.4 122.79 10.49 123.51 9.80004C124.22 9.12004 125.17 8.75004 126.19 8.75004H126.64C127 8.75004 127.33 8.88004 127.58 9.14004C127.82 9.38004 127.97 9.73004 127.97 10.08V19.78H122.34C121.28 19.78 120.42 20.64 120.42 21.7C120.42 21.72 120.46 21.76 120.48 21.76C120.54 21.76 120.54 21.71 120.54 21.7C120.54 20.7 121.35 19.89 122.35 19.89L122.32 19.88Z" fill="#222222"/>
</g>
<defs>
<clipPath id="clip0_4004_353">
<rect width="172.77" height="48.46" fill="white"/>
</clipPath>
</defs>
</svg>
