<svg width="30" height="31" viewBox="0 0 30 31" fill="none" xmlns="http://www.w3.org/2000/svg">
<g clip-path="url(#clip0_4001_621)">
<path d="M25.0625 19.2737C25.1387 18.735 25.1213 18.1987 25.0012 17.67C24.9212 17.315 25.0912 16.9312 25.4263 16.715C26.0487 16.3137 26.5537 15.7675 26.9287 15.0925C27.285 14.4487 27.4713 13.71 27.4675 12.9675C27.4713 12.2125 27.285 11.4737 26.9287 10.83C26.555 10.155 26.0487 9.6087 25.4263 9.20745C25.0912 8.99121 24.92 8.6087 25.0012 8.2512C25.1687 7.50995 25.1437 6.75245 24.9275 5.9962C24.515 4.5612 23.3687 3.41496 21.9325 3.0012C21.175 2.78621 20.4175 2.76245 19.6787 2.9287C19.32 3.00245 18.94 2.83745 18.7238 2.50245C18.3225 1.87995 17.7775 1.37495 17.1025 0.999955C15.7975 0.277455 14.1737 0.276205 12.8675 0.999955C12.195 1.3737 11.65 1.8787 11.2487 2.5012C11.0325 2.83621 10.6538 3.00745 10.2925 2.9262C9.555 2.7612 8.79625 2.78496 8.0375 3.0012C6.6025 3.41246 5.455 4.55995 5.045 5.9937C4.8275 6.7512 4.8025 7.5112 4.97 8.2512C5.05 8.6062 4.88 8.98995 4.545 9.20621C3.92125 9.6087 3.41625 10.1537 3.04125 10.8287C2.685 11.4725 2.49875 12.2112 2.5025 12.9537C2.49875 13.7087 2.685 14.4475 3.0425 15.0925C3.41625 15.7662 3.9225 16.3112 4.545 16.7125C4.88 16.93 5.05125 17.3125 4.97 17.6687C4.8475 18.205 4.83125 18.7512 4.91125 19.2987L0 24.21H6.25V30.46L12.2425 24.4675C12.4425 24.6262 12.6375 24.7912 12.8687 24.92C13.5212 25.2812 14.2537 25.4625 14.985 25.4625C15.7162 25.4625 16.45 25.2812 17.1038 24.9187C17.3412 24.7875 17.5413 24.62 17.745 24.4562L23.75 30.4612V24.2112H30L25.0625 19.2737ZM15.83 15.9775C15.3575 16.45 14.73 16.71 14.0625 16.71C13.395 16.71 12.7675 16.45 12.295 15.9775L9.1825 12.865L10.95 11.0975L14.0625 14.21L19.2275 9.04495L20.995 10.8125L15.83 15.9775Z" fill="#F5F4F4"/>
</g>
<defs>
<clipPath id="clip0_4001_621">
<rect width="30" height="30" fill="white" transform="translate(0 0.459961)"/>
</clipPath>
</defs>
</svg>
