<svg width="30" height="31" viewBox="0 0 30 31" fill="none" xmlns="http://www.w3.org/2000/svg">
<g clip-path="url(#clip0_4001_1118)">
<path d="M16.3163 6.80871C17.53 5.67246 19.2463 3.85871 19.9338 2.12871C20.2525 1.32746 19.6125 0.459961 18.75 0.459961H11.25C10.3875 0.459961 9.7475 1.32621 10.0663 2.12871C10.7538 3.85871 12.47 5.67246 13.6837 6.80871C6.96125 7.80746 1.25 16.2325 1.25 22.96C1.25 27.0962 4.61375 30.46 8.75 30.46H21.25C25.3862 30.46 28.75 27.0962 28.75 22.96C28.75 16.2325 23.0387 7.80746 16.3163 6.80871ZM13.305 17.6612L17.1075 18.295C18.7838 18.5737 20.0012 20.0112 20.0012 21.7112C20.0012 23.7787 18.3188 25.4612 16.2513 25.4612V26.7112C16.2513 27.4012 15.6913 27.9612 15.0013 27.9612C14.3113 27.9612 13.7513 27.4012 13.7513 26.7112V25.4612H13.4163C12.0813 25.4612 10.8375 24.7437 10.1688 23.5875C9.82375 22.99 10.0275 22.2262 10.625 21.88C11.22 21.5337 11.9862 21.7375 12.3325 22.3362C12.555 22.7212 12.9712 22.9612 13.4163 22.9612H16.2513C16.94 22.9612 17.5013 22.4 17.5013 21.7112C17.5013 21.2387 17.1625 20.8387 16.6963 20.7612L12.8937 20.1275C11.2175 19.8487 10 18.4112 10 16.7112C10 14.6437 11.6825 12.9612 13.75 12.9612V11.7112C13.75 11.0212 14.31 10.4612 15 10.4612C15.69 10.4612 16.25 11.0212 16.25 11.7112V12.9612H16.585C17.9187 12.9612 19.1637 13.68 19.8325 14.8362C20.1775 15.4337 19.9738 16.1975 19.3763 16.5437C18.78 16.89 18.015 16.6862 17.6688 16.0875C17.445 15.7012 17.03 15.4625 16.585 15.4625H13.75C13.0612 15.4625 12.5 16.0237 12.5 16.7125C12.5 17.185 12.8387 17.585 13.305 17.6625V17.6612Z" fill="#F5F4F4"/>
</g>
<defs>
<clipPath id="clip0_4001_1118">
<rect width="30" height="30" fill="white" transform="translate(0 0.459961)"/>
</clipPath>
</defs>
</svg>
