<svg width="93" height="17" viewBox="0 0 93 17" fill="none" xmlns="http://www.w3.org/2000/svg">
<path d="M8.5 1.45996L10.4529 6.272L15.6329 6.64233L11.6599 9.98667L12.9084 15.0276L8.5 12.2825L4.09161 15.0276L5.34011 9.98667L1.36708 6.64233L6.54708 6.272L8.5 1.45996Z" fill="#DC1915" stroke="#DC1915"/>
<path d="M26.5 1.45996L28.4529 6.272L33.6329 6.64233L29.6599 9.98667L30.9084 15.0276L26.5 12.2825L22.0916 15.0276L23.3401 9.98667L19.3671 6.64233L24.5471 6.272L26.5 1.45996Z" fill="#DC1915" stroke="#DC1915"/>
<path d="M44.5 1.45996L46.4529 6.272L51.6329 6.64233L47.6599 9.98667L48.9084 15.0276L44.5 12.2825L40.0916 15.0276L41.3401 9.98667L37.3671 6.64233L42.5471 6.272L44.5 1.45996Z" fill="#DC1915" stroke="#DC1915"/>
<path d="M62.5 1.45996L64.4529 6.272L69.6329 6.64233L65.6599 9.98667L66.9084 15.0276L62.5 12.2825L58.0916 15.0276L59.3401 9.98667L55.3671 6.64233L60.5471 6.272L62.5 1.45996Z" fill="#DC1915" stroke="#DC1915"/>
<path d="M80.5 1.45996L82.4529 6.272L87.6329 6.64233L83.6599 9.98667L84.9084 15.0276L80.5 12.2825L76.0916 15.0276L77.3401 9.98667L73.3671 6.64233L78.5471 6.272L80.5 1.45996Z" stroke="#DC1915"/>
</svg>
