<svg width="20" height="21" viewBox="0 0 20 21" fill="none" xmlns="http://www.w3.org/2000/svg">
<g clip-path="url(#clip0_4004_981)">
<path d="M10 8.79331C7.7025 8.79331 5.83333 10.6625 5.83333 12.96C5.83333 15.2575 7.7025 17.1266 10 17.1266C12.2975 17.1266 14.1667 15.2575 14.1667 12.96C14.1667 10.6625 12.2975 8.79331 10 8.79331ZM10 15.46C8.62167 15.46 7.5 14.3383 7.5 12.96C7.5 11.5816 8.62167 10.46 10 10.46C11.3783 10.46 12.5 11.5816 12.5 12.96C12.5 14.3383 11.3783 15.46 10 15.46ZM17.205 9.59331C18.7717 9.42581 20 8.11165 20 6.50248C20 5.32331 19.53 4.20248 18.6725 3.34498C14.8625 -0.46502 5.13583 -0.464186 1.3275 3.34498C0.47 4.20248 0 5.32331 0 6.50165C0 8.11165 1.22917 9.42581 2.795 9.59331L1.07833 12.8125C0.3725 14.1358 0 15.6275 0 17.1266C0 18.965 1.495 20.46 3.33333 20.46H16.6667C18.505 20.46 20 18.965 20 17.1266C20 15.6275 19.6275 14.1358 18.9217 12.8125L17.205 9.59331ZM1.66667 6.50081C1.66667 5.76748 1.96333 5.06498 2.50583 4.52331C5.72833 1.30248 14.2733 1.30248 17.4942 4.52331C18.0358 5.06498 18.3342 5.76748 18.3333 6.50165C18.3333 7.30581 17.6792 7.95998 16.875 7.95998H16.305L15.6575 6.88081C15.3117 6.30331 14.8125 5.85248 14.2167 5.57831C13.275 5.14415 11.7792 4.62748 10 4.62748C8.22083 4.62748 6.725 5.14498 5.78417 5.57831C5.18667 5.85331 4.68833 6.30331 4.3425 6.88081L3.695 7.95998H3.125C2.32083 7.95998 1.66667 7.30581 1.66667 6.50081ZM16.6667 18.7933H3.33333C2.41417 18.7933 1.66667 18.0458 1.66667 17.1266C1.66667 15.9 1.97167 14.6791 2.55 13.5975L4.89833 9.19415L5.77167 7.73748C5.945 7.44915 6.19 7.22581 6.4825 7.09165C7.27167 6.72748 8.52333 6.29331 10.0008 6.29331C11.4783 6.29331 12.7292 6.72748 13.52 7.09165C13.8117 7.22581 14.0567 7.44915 14.23 7.73748L15.1033 9.19415L17.4517 13.5975C18.0292 14.68 18.335 15.9008 18.335 17.1266C18.335 18.0458 17.5875 18.7933 16.6683 18.7933H16.6667Z" fill="#DC1915"/>
</g>
<defs>
<clipPath id="clip0_4004_981">
<rect width="20" height="20" fill="white" transform="translate(0 0.459961)"/>
</clipPath>
</defs>
</svg>
