<svg width="45" height="46" viewBox="0 0 45 46" fill="none" xmlns="http://www.w3.org/2000/svg">
<g clip-path="url(#clip0_4004_994)">
<path d="M30.5935 16.6013L17.9676 27.8513C17.8058 28.0143 17.8058 28.1774 17.8058 28.3404L17.3201 32.7426C17.3201 32.9056 17.1583 32.9056 16.9964 32.7426L15.054 26.2208C14.8921 25.8947 15.054 25.5687 15.3777 25.4056L30.1079 16.1121C30.5935 15.9491 30.9173 16.4382 30.5935 16.6013Z" fill="#DC1915"/>
<path d="M22.5 0.459961C16.3489 0.459961 10.6835 2.90561 6.63669 6.9817C2.58993 11.0578 0 16.7643 0 22.96C0 29.1556 2.42806 34.8621 6.63669 38.9382C10.6835 43.0143 16.3489 45.46 22.5 45.46C28.6511 45.46 34.3165 43.0143 38.3633 38.9382C42.4101 34.8621 45 29.1556 45 22.96C44.8381 10.5687 34.8022 0.459961 22.5 0.459961ZM35.7734 13.3404L31.241 35.5143C31.0791 36.4926 29.7842 36.9817 28.9748 36.3295L22.0144 31.1121L18.4532 34.6991C17.8058 35.3513 16.8345 35.0252 16.5108 34.21L13.9209 26.0578L7.1223 23.9382C6.15108 23.6121 6.15108 22.4708 7.1223 22.1447L34.1547 11.5469C34.964 11.3839 36.0971 12.1991 35.7734 13.3404Z" fill="#DC1915"/>
</g>
<defs>
<clipPath id="clip0_4004_994">
<rect width="45" height="45" fill="white" transform="translate(0 0.459961)"/>
</clipPath>
</defs>
</svg>
