<svg width="45" height="46" viewBox="0 0 45 46" fill="none" xmlns="http://www.w3.org/2000/svg">
<g clip-path="url(#clip0_4004_992)">
<path fill-rule="evenodd" clip-rule="evenodd" d="M22.5 0.459961C34.9181 0.459961 45 10.5419 45 22.96C45 35.378 34.9181 45.46 22.5 45.46C10.0819 45.46 0 35.378 0 22.96C0 10.5419 10.0819 0.459961 22.5 0.459961ZM33.1811 12.3115C30.4876 9.6157 26.9056 8.13044 23.0893 8.12894C15.2259 8.12894 8.82607 14.5263 8.82299 22.3897C8.82193 24.9033 9.47883 27.357 10.7272 29.5196L8.70328 36.91L16.2661 34.9268C18.3498 36.063 20.6959 36.6617 23.0836 36.6627H23.0895C30.9521 36.6627 37.3525 30.2646 37.3556 22.4011C37.3571 18.5903 35.8746 15.0071 33.1811 12.3115ZM23.0894 34.254H23.0847C20.9569 34.2531 18.87 33.6817 17.0495 32.6017L16.6164 32.3447L12.1286 33.5217L13.3265 29.1475L13.0446 28.699C11.8576 26.8118 11.2308 24.6303 11.2316 22.3906C11.2343 15.8549 16.5536 10.5376 23.0941 10.5376C26.2613 10.5388 29.2384 11.7735 31.4771 14.014C33.7159 16.2546 34.9481 19.2329 34.9469 22.4002C34.9443 28.9363 29.625 34.2539 23.0894 34.254ZM29.5936 25.3762C29.2371 25.1978 27.4845 24.3357 27.1577 24.2168C26.831 24.0979 26.5934 24.0384 26.3558 24.3951C26.1181 24.7519 25.4349 25.5546 25.227 25.7924C25.0191 26.0302 24.8112 26.06 24.4547 25.8815C24.0982 25.7033 22.9496 25.3269 21.5881 24.1128C20.5284 23.168 19.813 22.0009 19.6051 21.6442C19.3972 21.2875 19.5829 21.0947 19.7614 20.9169C19.9217 20.7573 20.1178 20.5008 20.2961 20.2927C20.4743 20.0845 20.5337 19.9359 20.6525 19.6982C20.7714 19.4602 20.712 19.2522 20.6228 19.0738C20.5337 18.8955 19.8208 17.1414 19.5238 16.4279C19.2345 15.7331 18.9406 15.8271 18.7218 15.8162C18.5141 15.8058 18.2762 15.8036 18.0386 15.8036C17.8009 15.8036 17.4148 15.8929 17.088 16.2496C16.7613 16.6063 15.8404 17.4685 15.8404 19.2224C15.8404 20.9764 17.1178 22.6709 17.296 22.9088C17.4742 23.1466 19.8096 26.746 23.3854 28.2896C24.2358 28.6567 24.8999 28.876 25.4175 29.0402C26.2715 29.3114 27.0485 29.2731 27.6628 29.1814C28.3476 29.0791 29.7718 28.3193 30.0688 27.4869C30.3658 26.6545 30.3658 25.941 30.2767 25.7924C30.1876 25.6438 29.95 25.5546 29.5936 25.3762Z" fill="#DC1915"/>
</g>
<defs>
<clipPath id="clip0_4004_992">
<rect width="45" height="45" fill="white" transform="translate(0 0.459961)"/>
</clipPath>
</defs>
</svg>
